<svg width="118" height="118" viewBox="0 0 118 118" fill="none" xmlns="http://www.w3.org/2000/svg">
<g clip-path="url(#clip0_1303_3182)">
<mask id="mask0_1303_3182" style="mask-type:luminance" maskUnits="userSpaceOnUse" x="20" y="32" width="77" height="54">
<path d="M96.3961 32.6885H20.3818V85.055H96.3961V32.6885Z" fill="white"/>
</mask>
<g mask="url(#mask0_1303_3182)">
<path d="M62.6387 84.3853C48.5983 63.6555 41.2631 58.9355 37.1251 58.8717H20.382" stroke="#001C20" stroke-width="2" stroke-miterlimit="10"/>
<path d="M62.6387 33.3587C48.5984 54.0885 41.2632 58.8085 37.1252 58.8723H96.3963" stroke="#001C20" stroke-width="2" stroke-miterlimit="10"/>
</g>
<path d="M0.5 59C0.5 91.3087 26.6913 117.5 59 117.5C91.3087 117.5 117.5 91.3087 117.5 59C117.5 26.6913 91.3087 0.5 59 0.5C26.6913 0.5 0.5 26.6913 0.5 59Z" stroke="#001C20"/>
</g>
<defs>
<clipPath id="clip0_1303_3182">
<rect width="118" height="118" fill="white" transform="matrix(-1 0 0 -1 118 118)"/>
</clipPath>
</defs>
</svg>
