<svg width="177" height="138" viewBox="0 0 177 138" fill="none" xmlns="http://www.w3.org/2000/svg">
<path d="M87.6118 136.166C87.2109 135.621 86.7657 134.995 86.6225 134.776C86.4792 134.557 86.0719 133.983 85.7173 133.501C85.3628 133.019 85.0242 132.517 84.9649 132.386C83.5484 130.425 82.3106 128.199 81.0895 126.092C78.2163 121.19 76.3457 115.798 75.4849 110.558C75.2663 109.211 75.2621 104.13 75.4789 103.308C76.1514 100.756 76.5267 99.8182 77.4546 98.3688C79.7887 95.1913 82.6973 93.9933 86.4288 93.3479C90.8233 93.1282 96.5796 93.805 99.2685 97.9228C100.382 99.5114 101.107 101.407 101.49 103.149C102.039 113.891 98.8882 122.18 93.0689 130.819C92.7907 131.227 92.563 131.64 92.563 131.735C92.563 131.83 92.4896 131.908 92.3997 131.908C92.3099 131.908 92.1739 132.069 92.0975 132.267C92.021 132.464 91.5926 133.112 91.1454 133.708C90.6983 134.303 90.3317 134.841 90.3308 134.903C90.3293 135.001 90 135.449 88.936 136.8C88.7839 136.993 88.5877 137.153 88.5001 137.155C88.4124 137.157 88.0127 136.712 87.6118 136.166Z" fill="#001C20" fill-opacity="0.1"/>
<path d="M82.8437 117.249C82.8437 117.162 82.7678 117.09 82.675 117.09C82.5822 117.09 82.5506 117.162 82.6047 117.249C82.6589 117.337 82.7348 117.409 82.7735 117.409C82.8121 117.409 82.8437 117.337 82.8437 117.249Z" fill="#001C20" fill-opacity="0.1"/>
<path d="M82.8437 95.4211C82.8437 95.3334 82.8121 95.2617 82.7735 95.2617C82.7348 95.2617 82.6589 95.3334 82.6047 95.4211C82.5506 95.5088 82.5822 95.5805 82.675 95.5805C82.7678 95.5805 82.8437 95.5088 82.8437 95.4211Z" fill="#001C20" fill-opacity="0.1"/>
<path d="M38.4786 124.434C38.4242 124.346 38.4506 124.145 38.5374 123.988C38.6242 123.831 38.8126 123.273 38.9562 122.747C39.0997 122.221 39.2751 121.719 39.3459 121.632C39.4167 121.544 39.5603 121.15 39.6651 120.756C41.2804 116.084 46.9744 105.398 52.4116 103.706C52.8059 103.602 53.201 103.457 53.2895 103.385C53.4872 103.223 55.9827 102.961 58.5458 102.833C59.5974 102.78 60.7804 102.67 61.1748 102.588C61.5691 102.506 62.6029 102.328 63.4721 102.194C64.3413 102.059 65.13 101.888 65.2247 101.813C65.3195 101.739 65.7914 101.552 66.2734 101.398C67.6446 100.961 69.0129 100.117 70.6207 98.7183C71.6419 97.8298 71.7267 97.7881 72.1516 97.9641C72.7312 98.2042 73.6388 99.1511 74.0649 99.9604C74.5884 100.955 74.5288 102.475 73.9097 103.919C67.8782 117.553 59.051 122.791 44.684 124.259C42.2538 124.497 38.5819 124.601 38.4786 124.434Z" fill="#001C20" fill-opacity="0.1"/>
<path d="M61.1748 117.25C61.1748 117.163 61.1031 117.091 61.0154 117.091C60.9278 117.091 60.8561 117.163 60.8561 117.25C60.8561 117.338 60.9278 117.41 61.0154 117.41C61.1031 117.41 61.1748 117.338 61.1748 117.25Z" fill="#001C20" fill-opacity="0.1"/>
<path d="M133.75 124.397C121.592 123.909 109.607 116.878 104.469 106.814C103.126 104.138 101.874 101.899 103.181 99.4052C103.365 99.0254 104.348 98.1713 104.835 97.9697C105.201 97.818 105.353 97.8333 105.693 98.0559C107.682 99.9374 109.639 101.172 112.24 101.962C113.122 102.224 115.887 102.616 117.897 102.763C121.472 102.865 124.679 103.216 127.365 105.293C128.445 106.14 130.982 108.865 131.758 110.014C133.004 111.855 133.596 112.772 134.011 113.506C135.632 116.137 136.399 118.608 137.567 121.313C137.674 121.488 137.892 122.134 138.052 122.747C138.213 123.361 138.41 123.949 138.49 124.055C138.571 124.16 138.591 124.322 138.534 124.413C138.42 124.597 137.723 124.596 133.75 124.397Z" fill="#001C20" fill-opacity="0.1"/>
<path d="M126.341 117.25C126.341 117.163 126.269 117.091 126.182 117.091C126.094 117.091 126.022 117.163 126.022 117.25C126.022 117.338 126.094 117.41 126.182 117.41C126.269 117.41 126.341 117.338 126.341 117.25Z" fill="#001C20" fill-opacity="0.1"/>
<path d="M26.6407 108.088C25.0549 107.954 23.4111 107.773 22.9878 107.686C22.5646 107.598 21.3579 107.38 20.3063 107.201C19.2547 107.021 18.251 106.81 18.0757 106.732C17.9004 106.654 17.1476 106.476 16.4027 106.336C15.6578 106.196 14.905 106.014 14.7297 105.932C14.5545 105.849 13.8375 105.642 13.1364 105.471C11.4517 105.059 9.54978 104.521 9.15315 104.344C8.97795 104.265 8.2609 104.052 7.55985 103.869C6.85878 103.687 6.17679 103.478 6.04429 103.406C5.91181 103.333 5.37404 103.152 4.84932 103.004C4.32458 102.855 3.67083 102.631 3.39657 102.505C3.12231 102.379 2.53078 102.192 2.08209 102.088C1.63337 101.984 1.26627 101.841 1.26627 101.77C1.26627 101.698 0.979468 101.594 0.628952 101.538C0.0138652 101.439 -0.132718 101.261 0.113562 100.912C0.220828 100.76 2.07187 99.1739 2.80207 98.6085C3.97321 97.7016 6.81396 96.039 7.95817 95.5908C8.26489 95.4708 8.73093 95.2488 8.99383 95.0978C9.25673 94.9467 9.75862 94.7334 10.1091 94.6238C10.4597 94.5141 10.8182 94.3687 10.9058 94.3008C10.9934 94.2329 11.4953 94.0544 12.0211 93.904C12.5469 93.7537 13.0488 93.5741 13.1364 93.5049C13.2241 93.4356 13.7618 93.2626 14.3314 93.1203C14.901 92.978 15.5105 92.7939 15.6857 92.7111C16.1026 92.5143 19.0674 91.8185 21.1826 91.421C22.1028 91.248 22.9632 91.0601 23.0946 91.0033C23.2261 90.9465 24.3733 90.7325 25.6439 90.5278C26.9146 90.3231 28.3486 90.0882 28.8305 90.0058C29.584 89.8771 29.7357 89.8944 29.9122 90.1294C30.0251 90.2798 30.5629 90.9029 31.1072 91.5141C34.7451 95.5989 37.5185 97.6067 41.5382 99.0655C43.3233 99.7133 44.8858 99.9363 47.6714 99.9408C49.0542 99.9427 50.0216 100.007 50.0216 100.097C45.0046 107.537 34.0036 108.657 26.6407 108.088Z" fill="#001C20" fill-opacity="0.1"/>
<path d="M17.6774 95.422C17.6774 95.3343 17.6057 95.2626 17.5181 95.2626C17.4305 95.2626 17.3588 95.3343 17.3588 95.422C17.3588 95.5097 17.4305 95.5814 17.5181 95.5814C17.6057 95.5814 17.6774 95.5097 17.6774 95.422Z" fill="#001C20" fill-opacity="0.1"/>
<path d="M139.486 107.778C136.531 107.286 133.68 105.833 131.679 104.655C131.328 104.448 131.005 104.236 130.962 104.183C130.918 104.13 130.712 103.971 130.503 103.828C129.533 103.165 126.978 100.461 126.978 100.098C126.978 99.9937 127.854 99.9367 129.408 99.9399C136.906 99.9512 142.327 95.8741 146.822 90.446L147.308 89.8516L148.256 90.022C148.778 90.1159 150.209 90.3626 151.436 90.5702C159.421 92.1652 167.604 93.6514 174.198 98.6086C174.928 99.174 176.779 100.76 176.886 100.912C177.133 101.261 176.986 101.439 176.371 101.538C175.431 101.939 174.597 102.126 173.602 102.516C168.127 104.25 162.452 106.269 156.933 107.133C151.26 108.249 144.847 108.893 139.486 107.778Z" fill="#001C20" fill-opacity="0.1"/>
<path d="M148.17 95.511C148.17 95.4724 148.098 95.3964 148.01 95.3422C147.923 95.288 147.851 95.3196 147.851 95.4124C147.851 95.5051 147.923 95.5812 148.01 95.5812C148.098 95.5812 148.17 95.5496 148.17 95.511Z" fill="#001C20" fill-opacity="0.1"/>
<path d="M53.5269 98.7564C52.782 98.6745 51.9933 98.5394 51.7742 98.4562C48.1252 97.7499 44.4593 96.5215 41.2584 94.8483C36.6686 92.7354 31.9257 88.7308 29.222 86.1725C25.3657 82.5226 20.1435 75.7747 17.3153 70.7872C17.0724 70.3588 16.6935 69.7215 16.4733 69.3709C16.0341 68.6717 15.6061 67.7846 15.6061 67.5736C15.6061 67.396 16.9133 66.8313 18.091 66.5004C22.747 65.192 27.3977 65.4243 32.8935 67.2399C35.0144 67.8452 36.8126 68.8368 38.6194 69.7693C38.7239 69.7693 38.9277 70.0023 39.0723 70.2871C39.5614 71.2503 41.6902 74.8256 41.8946 75.0272C41.939 75.071 42.2622 75.5368 42.6127 76.0624C44.2456 78.5105 46.3163 81.0246 48.585 83.3133C51.5027 86.2567 52.2483 86.919 54.4828 88.5521C54.9648 88.9044 55.4321 89.2497 55.5212 89.3196C55.6818 89.4455 57.073 90.3632 58.1475 91.052C59.0693 91.6429 61.4901 92.9402 62.8477 93.5708C63.5488 93.8964 64.3016 94.2576 64.5207 94.3733C64.7398 94.4891 65.2058 94.6741 65.5563 94.7844C65.9069 94.8947 66.2654 95.0363 66.353 95.099C66.4931 95.1991 69.8538 96.3515 70.3761 96.4785C70.4857 96.5052 70.5753 96.6279 70.5753 96.7512C70.5753 97.0084 69.2288 97.3994 65.4767 98.2318C63.0887 98.7616 62.8727 98.7818 58.9441 98.8425C56.7095 98.8772 54.2717 98.8388 53.5269 98.7564Z" fill="#001C20" fill-opacity="0.1"/>
<path d="M61.1748 95.4215C61.1748 95.3338 61.1031 95.2621 61.0154 95.2621C60.9278 95.2621 60.8561 95.3338 60.8561 95.4215C60.8561 95.5092 60.9278 95.5809 61.0154 95.5809C61.1031 95.5809 61.1748 95.5092 61.1748 95.4215Z" fill="#001C20" fill-opacity="0.1"/>
<path d="M39.3464 73.7525C39.3464 73.6648 39.2747 73.5931 39.187 73.5931C39.0994 73.5931 39.0277 73.6648 39.0277 73.7525C39.0277 73.8402 39.0994 73.9119 39.187 73.9119C39.2747 73.9119 39.3464 73.8402 39.3464 73.7525Z" fill="#001C20" fill-opacity="0.1"/>
<path d="M107.58 97.2584C106.687 97.0437 106.425 96.9166 106.425 96.6994C106.425 96.4925 106.601 96.39 107.092 96.3115C109.736 95.602 112.559 94.3288 114.551 93.3854C115.636 92.8707 118.104 91.5319 118.853 91.0519C119.936 90.3574 121.319 89.445 121.479 89.3191C121.568 89.2489 122.042 88.8905 122.532 88.5224C125.078 86.6115 125.383 86.3437 127.935 83.7913C130.591 81.1339 131.216 80.4251 132.922 78.1341C134.389 76.1635 135.5 74.5144 136.302 73.1152C136.528 72.7208 136.922 72.0397 137.178 71.6015C137.434 71.1634 137.763 70.5785 137.91 70.3019C145.974 66.3484 153.601 63.8569 160.996 67.2854C161.524 67.4178 161.503 67.7819 160.916 68.7079C160.653 69.1224 160.438 69.5213 160.438 69.5943C160.438 69.6673 160.115 70.2082 159.721 70.7962C159.327 71.3843 159.004 71.8993 159.004 71.9406C159.004 72.0782 156.884 75.2422 155.621 76.9908C151.622 82.5246 147.355 86.998 142.829 90.4032C129.674 98.8658 121.073 100.967 107.58 97.2584Z" fill="#001C20" fill-opacity="0.1"/>
<path d="M126.341 95.4215C126.341 95.3338 126.269 95.2621 126.182 95.2621C126.094 95.2621 126.022 95.3338 126.022 95.4215C126.022 95.5092 126.094 95.5809 126.182 95.5809C126.269 95.5809 126.341 95.5092 126.341 95.4215Z" fill="#001C20" fill-opacity="0.1"/>
<path d="M148.17 73.7525C148.17 73.6648 148.098 73.5931 148.01 73.5931C147.923 73.5931 147.851 73.6648 147.851 73.7525C147.851 73.8402 147.923 73.9119 148.01 73.9119C148.098 73.9119 148.17 73.8402 148.17 73.7525Z" fill="#001C20" fill-opacity="0.1"/>
<path d="M60.7004 89.261C60.5669 89.1511 60.171 88.8392 59.8204 88.5678C53.2552 83.0815 50.4228 75.9318 49.8281 68.3254C49.6247 65.5639 49.8149 62.706 50.2071 62.6312C51.1151 63.3641 51.9737 64.5494 52.7054 65.2859C56.6043 68.8369 59.7291 71.0738 64.6206 72.2482C65.3658 72.3826 65.636 72.5766 65.636 72.977C65.636 73.1428 65.7029 73.4028 65.7845 73.555C66.6264 76.5879 67.79 79.6902 69.5519 82.4355C70.6809 84.1654 72.7753 86.3035 74.3992 87.384C76.6704 88.8126 79.2511 89.714 81.6886 90.0893C82.0611 90.1454 82.3658 90.244 82.3658 90.3086C82.3658 90.5031 81.6853 91.0636 81.0911 91.3586C80.7844 91.5109 80.4259 91.7246 80.2945 91.8335C80.163 91.9424 79.697 92.163 79.2588 92.3239C78.8207 92.4848 78.4257 92.6679 78.3812 92.731C78.3366 92.794 77.5479 93.0065 76.6285 93.2031C70.9427 94.2367 65.2545 92.8885 60.7004 89.261Z" fill="#001C20" fill-opacity="0.1"/>
<path d="M61.1748 73.7519C61.1748 73.6642 61.1031 73.5925 61.0154 73.5925C60.9278 73.5925 60.8561 73.6642 60.8561 73.7519C60.8561 73.8396 60.9278 73.9113 61.0154 73.9113C61.1031 73.9113 61.1748 73.8396 61.1748 73.7519Z" fill="#001C20" fill-opacity="0.1"/>
<path d="M95.8293 91.3138C95.2227 91.009 94.509 90.3779 94.6485 90.2696C94.6845 90.2418 95.534 90.0605 96.5364 89.8669C97.5387 89.6734 98.4349 89.4545 98.528 89.3805C98.6211 89.3066 98.8765 89.1942 99.0955 89.1307C100.136 88.8295 102.788 87.3917 103.499 86.7431C103.598 86.6524 104.071 86.2417 104.549 85.8306C106.332 84.296 108.23 81.5702 109.422 78.8316C109.789 77.9886 110.089 77.214 110.089 77.11C110.089 77.0061 110.225 76.6203 110.391 76.2526C110.556 75.885 110.783 75.154 110.894 74.6282C111.005 74.1024 111.156 73.6041 111.23 73.5209C111.304 73.4377 111.364 73.2134 111.364 73.0226C116.144 70.3792 123.132 69.1164 126.382 62.9572C126.475 62.7601 126.675 62.5988 126.825 62.5988C127.067 62.5988 127.111 62.8672 127.198 64.8692C127.11 71.1831 126.045 77.4701 122.426 82.8607C120.996 84.9188 118.782 87.3274 117.18 88.5677C116.829 88.839 116.433 89.151 116.3 89.2609C115.193 90.1717 112.1 91.861 110.705 92.3163C109.091 93.029 107.624 93.1717 105.895 93.5149C102.314 93.9617 98.9547 93.0198 95.8293 91.3138Z" fill="#001C20" fill-opacity="0.1"/>
<path d="M85.4024 86.6596C79.5277 85.4198 74.3872 80.8619 72.5929 75.5475C72.0037 73.7157 71.8493 72.6406 71.8559 70.4165C71.8625 68.2303 72.0901 66.3019 72.7037 63.2361C73.2473 60.5201 74.4592 56.0731 74.94 55.0305C75.0612 54.7676 75.2127 54.3733 75.2765 54.1542C75.3404 53.9351 75.5634 53.3774 75.7722 52.9147C75.981 52.452 76.1519 52.0353 76.1519 51.9886C76.1519 51.6432 78.7255 46.488 79.8135 44.6541C80.4992 43.4982 82.0472 41.089 82.2064 40.9297C82.2502 40.8859 82.6049 40.384 82.9946 39.8144C83.9452 38.425 86.4898 35.2272 87.4663 34.195C87.9 33.7366 88.2562 33.3077 88.2579 33.242C88.2722 32.6919 89.5182 33.994 92.0735 37.2295C93.5199 39.0609 95.2344 41.527 96.6397 43.7977C97.8482 45.7502 97.914 45.8705 99.168 48.4183C99.7502 49.6013 100.366 50.8344 100.537 51.1585C100.708 51.4825 100.848 51.8239 100.848 51.917C100.848 52.0102 100.99 52.3903 101.164 52.7618C102.094 54.7539 103.498 59.4783 104.3 63.3157C105.623 69.645 105.375 74.9204 103.603 78.1461C102.657 79.8671 102.537 80.0641 102.058 80.6669C98.6415 84.8116 93.9555 86.8127 88.739 87.0941C87.5186 87.2842 86.3958 86.8633 85.4024 86.6596Z" fill="#001C20" fill-opacity="0.1"/>
<path d="M82.8437 73.7519C82.8437 73.6642 82.7678 73.5925 82.675 73.5925C82.5822 73.5925 82.5506 73.6642 82.6047 73.7519C82.6589 73.8396 82.7348 73.9113 82.7735 73.9113C82.8121 73.9113 82.8437 73.8396 82.8437 73.7519Z" fill="#001C20" fill-opacity="0.1"/>
<path d="M104.592 73.7519C104.647 73.6642 104.615 73.5925 104.522 73.5925C104.429 73.5925 104.353 73.6642 104.353 73.7519C104.353 73.8396 104.385 73.9113 104.424 73.9113C104.462 73.9113 104.538 73.8396 104.592 73.7519Z" fill="#001C20" fill-opacity="0.1"/>
<path d="M44.1437 69.9389C42.3977 68.1835 40.1441 65.6446 39.1871 64.3547C38.968 64.0594 38.5002 63.4539 38.1475 63.0091C37.0892 61.6745 34.8154 58.1298 33.78 56.2004C30.3854 49.8285 28.2801 43.3821 27.3783 36.1498C26.8735 32.2344 25.9439 21.9501 27.166 19.5976C27.2862 19.4773 32.6397 22.3048 34.1573 23.29C41.4442 27.6646 47.9192 33.017 53.6381 38.6751C56.0725 41.0867 56.1055 41.1287 56.0175 41.7024C55.5805 44.5524 55.4628 45.6051 55.3642 47.542C55.2526 49.7368 55.4753 54.6505 55.7564 56.1938C55.8313 56.6056 56.0429 57.8281 56.2265 58.9105C56.4101 59.9929 56.6337 61.0157 56.7235 61.1833C56.9664 61.6373 56.4705 61.7666 56.0283 61.3646C55.8356 61.1894 55.2213 60.7321 54.6633 60.3486C54.1052 59.9651 53.1275 59.2927 52.4906 58.8546C51.8537 58.4164 50.8046 57.6994 50.1593 57.2613C49.1599 56.4985 48.1288 55.8807 47.2334 55.1079L47.0506 56.0253C46.9501 56.5298 46.7943 57.3011 46.7044 57.7393C46.3512 59.461 46.1517 63.824 46.2436 67.8169C46.3008 70.3044 46.2786 71.8401 46.1854 71.8401C46.1026 71.8401 45.1838 70.9845 44.1437 69.9389Z" fill="#001C20" fill-opacity="0.1"/>
<path d="M39.3464 51.9236C39.3464 51.8359 39.3148 51.7642 39.2761 51.7642C39.2375 51.7642 39.1616 51.8359 39.1074 51.9236C39.0533 52.0113 39.0849 52.0829 39.1777 52.0829C39.2705 52.0829 39.3464 52.0113 39.3464 51.9236Z" fill="#001C20" fill-opacity="0.1"/>
<path d="M130.723 66.3829C130.782 62.3202 130.349 58.672 129.767 55.1079L129.304 55.5074C127.17 56.9606 124.992 58.6582 122.876 60.0526C122.248 60.3978 121.34 61.0267 120.913 61.4136C120.666 61.6372 120.127 61.7325 120.127 61.5527C120.127 61.5032 120.198 61.3311 120.283 61.1705C120.458 60.8453 120.99 57.8735 121.355 55.1899C121.696 52.6799 121.684 46.0074 121.334 43.8774C121.19 43.0011 121.031 42.0203 120.982 41.6979C120.894 41.1184 120.921 41.084 123.361 38.6706C124.719 37.328 126.313 35.7994 126.904 35.2736C133.29 29.7357 140.473 24.1272 148.01 20.3839C148.497 20.1419 148.979 19.8531 149.456 19.6612C149.847 19.5637 149.877 19.6034 150.074 20.4853C151.56 37.4365 145.335 55.2914 135.69 66.9649C134.794 68.0163 130.991 71.84 130.842 71.84C130.776 71.84 130.723 69.3843 130.723 66.3829Z" fill="#001C20" fill-opacity="0.1"/>
<path d="M126.341 51.9236C126.341 51.8359 126.269 51.7642 126.182 51.7642C126.094 51.7642 126.022 51.8359 126.022 51.9236C126.022 52.0113 126.094 52.0829 126.182 52.0829C126.269 52.0829 126.341 52.0113 126.341 51.9236Z" fill="#001C20" fill-opacity="0.1"/>
<path d="M148.09 30.2545C148.144 30.1668 148.112 30.0951 148.02 30.0951C147.927 30.0951 147.851 30.1668 147.851 30.2545C147.851 30.3422 147.882 30.4139 147.921 30.4139C147.96 30.4139 148.036 30.3422 148.09 30.2545Z" fill="#001C20" fill-opacity="0.1"/>
<path d="M63.1292 65.8569C62.7825 65.3819 61.3353 62.7822 61.158 62.316C61.0682 62.0798 60.8946 61.6704 60.7721 61.4061C60.0168 59.7766 59.2224 56.928 58.8384 54.4728C58.5225 52.4527 58.5262 46.2527 58.8446 43.957C59.597 39.6887 60.6242 34.6197 62.3899 30.8918C64.9563 31.9489 67.567 34.1578 68.9367 35.3343C70.182 36.4042 72.2094 38.4481 72.8277 39.2567C73.0287 39.5196 73.2318 39.7706 73.279 39.8144C73.5319 40.0492 75.171 42.1766 75.3328 42.48C75.4952 42.7845 75.4433 42.9897 74.9701 43.914C71.6923 50.7625 69.1754 57.7118 67.0645 64.8293C66.8175 65.6619 66.4464 66.9161 66.2398 67.6165C65.979 68.5013 65.7809 68.906 65.5908 68.9426C64.7225 68.1797 63.704 66.6431 63.1292 65.8569Z" fill="#001C20" fill-opacity="0.1"/>
<path d="M61.1748 52.0128C61.1748 51.9742 61.1031 51.8982 61.0154 51.844C60.9278 51.7898 60.8561 51.8214 60.8561 51.9142C60.8561 52.007 60.9278 52.083 61.0154 52.083C61.1031 52.083 61.1748 52.0514 61.1748 52.0128Z" fill="#001C20" fill-opacity="0.1"/>
<path d="M110.882 68.0558C110.779 67.5519 110.598 66.9246 110.48 66.6617C110.362 66.3988 110.151 65.7176 110.011 65.148C109.871 64.5784 109.714 64.0048 109.66 63.8734C109.607 63.7418 109.543 63.5627 109.517 63.4751C108.95 61.5029 108.759 60.8985 108.661 60.7664C108.595 60.6787 108.455 60.2486 108.348 59.8104C108.241 59.3723 108.057 58.7987 107.939 58.5358C107.821 58.2729 107.604 57.6276 107.458 57.1018C107.311 56.576 107.134 56.0741 107.063 55.9865C106.993 55.8988 106.821 55.4405 106.682 54.9679C106.435 54.1294 105.762 52.3222 105.461 51.6845C105.378 51.5093 105.175 50.9715 105.01 50.4896C104.662 49.4726 102.476 44.6631 101.864 43.567L101.447 42.8207L101.974 42.0744C103.516 39.8902 106.808 36.3355 108.894 34.6025C110.764 33.1126 112.479 31.5149 114.61 30.8918C114.739 30.8918 114.93 31.1497 115.034 31.4649C116.6 35.4966 117.571 39.8893 118.156 43.957C118.478 46.258 118.48 52.445 118.159 54.4728C116.957 59.2344 115.987 64.3447 112.121 68.1592C111.88 68.3824 111.683 68.6565 111.683 68.7685C111.683 68.8804 111.544 68.972 111.375 68.972C111.129 68.972 111.031 68.7902 110.882 68.0558Z" fill="#001C20" fill-opacity="0.1"/>
<path d="M76.7012 36.9863C74.7122 34.668 70.5959 31.2094 70.2627 30.8919C70.0129 30.6539 69.9775 30.3554 70.3319 29.3447C70.8351 27.9102 71.3323 26.6198 71.6083 26.0323C71.7319 25.7694 72.0242 25.1241 72.2579 24.5983C72.8069 23.3633 74.6188 19.7299 75.1978 18.7031C75.9787 17.3181 76.457 16.4906 76.8278 15.8832C77.8414 14.2224 78.5005 13.1834 79.1637 12.2005C79.5665 11.6036 80.0418 10.8736 80.22 10.5782C80.8506 9.5286 81.6484 8.62364 82.286 7.71137C83.9361 5.33863 88.2899 0.00410557 88.5795 3.11033e-06C89.0118 -0.00564248 94.9517 7.67561 97.6208 11.6925C100.758 16.4137 102.315 19.1474 104.475 23.722C105.283 25.4353 105.736 26.4755 105.966 27.1477C106.086 27.4982 106.221 27.8208 106.267 27.8646C106.345 27.9388 107.221 30.4824 107.221 30.6329C107.221 30.6704 106.982 30.8423 106.69 31.0148C105.363 31.7977 102.101 34.9135 100.355 37.066C99.7037 37.8688 99.4297 38.0315 99.2502 37.7033C99.119 37.469 98.8343 36.858 97.8235 35.3532C95.2525 31.6134 92.6981 27.3246 89.3355 23.8128L88.5743 23.0273L88.0022 23.5738C84.6852 27.1762 81.9634 30.9897 79.4977 35.0806C78.7777 36.3015 77.6956 37.9025 77.5904 37.9025C77.5336 37.9025 77.1334 37.4902 76.7012 36.9863Z" fill="#001C20" fill-opacity="0.1"/>
<path d="M83.0031 8.51531C83.0031 8.34707 82.6973 8.2765 82.6063 8.42368C82.5513 8.51269 82.618 8.58569 82.7547 8.58569C82.8913 8.58569 83.0031 8.55388 83.0031 8.51531Z" fill="#001C20" fill-opacity="0.1"/>
</svg>
