<svg width="117" height="100" viewBox="0 0 117 100" fill="none" xmlns="http://www.w3.org/2000/svg">
<path d="M111.795 42.3616C111.738 42.3616 111.553 42.3378 111.517 42.0308C111.146 38.9039 110.151 37.6237 107.717 37.1358C107.548 37.1025 107.431 36.9431 107.431 36.7503C107.431 36.5576 107.548 36.3981 107.717 36.3648C110.122 35.8817 111.058 34.6514 111.431 31.4888C111.455 31.2889 111.595 31.1485 111.774 31.1485C111.952 31.1485 112.093 31.2889 112.117 31.4888C112.493 34.6514 113.43 35.8793 115.836 36.3624C116.005 36.3957 116.122 36.5552 116.122 36.7479C116.122 36.9407 116.005 37.1001 115.836 37.1334C113.43 37.6165 112.447 38.8944 112.079 42.0142C112.043 42.3378 111.852 42.3616 111.795 42.3616ZM107.828 36.7527C110.194 37.2358 111.324 38.4684 111.798 41.1861C112.267 38.4613 113.383 37.231 115.724 36.7503V36.7479C113.271 36.2458 112.207 34.9703 111.774 31.941C111.346 34.9703 110.28 36.2482 107.828 36.7503C107.828 36.7503 107.828 36.7503 107.828 36.7527Z" fill="#001C20"/>
<path d="M111.795 42.6067C111.584 42.6067 111.322 42.4639 111.274 42.0594C110.915 39.0253 110.003 37.845 107.669 37.3762C107.386 37.319 107.186 37.062 107.186 36.7503C107.186 36.4386 107.383 36.1816 107.669 36.1244C109.973 35.6604 110.827 34.5277 111.189 31.4603C111.227 31.139 111.474 30.9034 111.776 30.9034C112.079 30.9034 112.326 31.1366 112.364 31.4579C112.728 34.5253 113.585 35.658 115.888 36.1197C116.172 36.1768 116.372 36.4338 116.372 36.7455C116.372 37.0573 116.174 37.3143 115.888 37.3714C113.583 37.8354 112.685 39.0134 112.326 42.0404C112.276 42.4592 112.01 42.6067 111.795 42.6067ZM111.676 41.4002C111.707 41.593 111.736 41.7952 111.76 42.0023C111.769 42.076 111.788 42.107 111.795 42.1165C111.805 42.1094 111.826 42.0737 111.838 41.988C111.862 41.7857 111.888 41.5906 111.919 41.4002C111.883 41.4216 111.843 41.4311 111.798 41.4311C111.755 41.4311 111.712 41.4193 111.676 41.4002ZM108.776 36.7527C110.351 37.2881 111.288 38.3161 111.795 40.0747C112.297 38.3161 113.221 37.2881 114.78 36.7527C113.159 36.2077 112.257 35.1607 111.774 33.245C111.296 35.1559 110.396 36.2054 108.776 36.7527ZM111.776 31.396C111.712 31.396 111.684 31.4626 111.676 31.5198C111.669 31.5911 111.66 31.6601 111.65 31.7315C111.688 31.7101 111.731 31.6958 111.776 31.6958C111.822 31.6958 111.867 31.7077 111.902 31.7315C111.893 31.6625 111.886 31.5911 111.876 31.5198C111.869 31.4626 111.838 31.396 111.776 31.396Z" fill="#001C20"/>
<path d="M111.795 42.4758C111.738 42.4758 111.453 42.4544 111.403 42.0427C111.039 38.9777 110.068 37.7212 107.693 37.2453C107.471 37.2001 107.314 36.9954 107.314 36.7479C107.314 36.5004 107.469 36.2958 107.69 36.2506C110.034 35.7794 110.948 34.5729 111.315 31.4745C111.346 31.2152 111.534 31.0343 111.771 31.0343C112.009 31.0343 112.197 31.2152 112.228 31.4745C112.597 34.5753 113.511 35.7794 115.857 36.2482C116.079 36.2934 116.236 36.4957 116.236 36.7456C116.236 36.993 116.081 37.1977 115.86 37.2429C113.513 37.7141 112.554 38.9658 112.195 42.0261C112.145 42.4544 111.852 42.4758 111.795 42.4758ZM111.776 31.2651C111.655 31.2651 111.562 31.3603 111.545 31.5031C111.165 34.7276 110.206 35.9817 107.74 36.4766C107.626 36.5004 107.545 36.6123 107.545 36.7503C107.545 36.8883 107.626 37.0002 107.74 37.024C110.234 37.5237 111.253 38.8302 111.631 42.0166C111.655 42.226 111.755 42.2474 111.795 42.2474C111.838 42.2474 111.943 42.2236 111.969 41.9999C112.345 38.8183 113.352 37.5166 115.817 37.0192C115.931 36.9954 116.012 36.8836 116.012 36.7456C116.012 36.6075 115.931 36.4957 115.817 36.4719C113.352 35.9769 112.39 34.7228 112.007 31.5007C111.988 31.3603 111.895 31.2651 111.776 31.2651ZM111.798 41.3003C111.743 41.3003 111.695 41.2598 111.686 41.2051C111.224 38.5565 110.137 37.3405 107.807 36.8645C107.755 36.8526 107.716 36.8074 107.716 36.7527V36.7503C107.716 36.6956 107.755 36.6504 107.807 36.6385C110.232 36.1411 111.241 34.9084 111.662 31.9243C111.669 31.8672 111.719 31.8267 111.774 31.8267C111.831 31.8267 111.879 31.8696 111.886 31.9243C112.309 34.9084 113.321 36.1411 115.746 36.6361C115.798 36.648 115.836 36.6932 115.836 36.7479C115.836 36.8027 115.798 36.8503 115.746 36.8622C113.44 37.3357 112.364 38.5541 111.907 41.2051C111.9 41.2598 111.852 41.3003 111.798 41.3003ZM108.323 36.7503C110.279 37.2715 111.3 38.3994 111.798 40.5983C112.29 38.3971 113.299 37.2667 115.234 36.7479C113.235 36.2149 112.243 35.0346 111.776 32.6335C111.312 35.0369 110.32 36.2149 108.323 36.7503Z" fill="#001C20"/>
<path d="M111.795 42.7209C111.588 42.7209 111.222 42.5853 111.16 42.0713C110.808 39.0991 109.92 37.9425 107.645 37.4856C107.307 37.419 107.072 37.1144 107.072 36.7479C107.072 36.3815 107.307 36.0792 107.645 36.0102C109.887 35.5605 110.72 34.4491 111.074 31.4436C111.12 31.0629 111.415 30.7868 111.774 30.7868C112.136 30.7868 112.428 31.0629 112.474 31.4436C112.831 34.4491 113.663 35.5581 115.907 36.0078C116.245 36.0745 116.481 36.3791 116.481 36.7455C116.481 37.112 116.245 37.4142 115.907 37.4832C113.663 37.9354 112.788 39.0872 112.435 42.0546C112.381 42.5472 112.055 42.7209 111.795 42.7209ZM109.109 36.7503C110.448 37.281 111.293 38.2019 111.795 39.6821C112.29 38.2019 113.126 37.281 114.449 36.7503C113.085 36.2077 112.257 35.2559 111.776 33.6686C111.296 35.2535 110.47 36.2077 109.109 36.7503Z" fill="#001C20"/>
<path d="M4.72372 42.3568C4.66661 42.3568 4.481 42.333 4.4453 42.026C4.07407 38.8991 3.07936 37.6189 0.64494 37.131C0.475983 37.0977 0.359375 36.9383 0.359375 36.7455C0.359375 36.5528 0.475983 36.3933 0.64494 36.36C3.05081 35.8769 3.98602 34.6466 4.35963 31.484C4.38343 31.2841 4.52383 31.1437 4.70231 31.1437C4.88078 31.1437 5.02118 31.2841 5.04498 31.484C5.42097 34.6466 6.35857 35.8746 8.76444 36.3576C8.93339 36.391 9.05 36.5504 9.05 36.7431C9.05 36.9359 8.93339 37.0953 8.76444 37.1287C6.35857 37.6117 5.37576 38.8896 5.00691 42.0094C4.97121 42.333 4.78084 42.3568 4.72372 42.3568ZM0.756786 36.7479C3.1222 37.231 4.25255 38.4637 4.7261 41.1813C5.1949 38.4565 6.31098 37.2262 8.65259 36.7455V36.7431C6.19913 36.241 5.13541 34.9655 4.70231 31.9362C4.27396 34.9655 3.20787 36.2434 0.756786 36.7455C0.756786 36.7455 0.756786 36.7455 0.756786 36.7479Z" fill="#001C20"/>
<path d="M4.72371 42.602C4.51192 42.602 4.25016 42.4592 4.20257 42.0546C3.84324 39.0205 2.93181 37.8402 0.597334 37.3714C0.314151 37.3143 0.114258 37.0573 0.114258 36.7455C0.114258 36.4338 0.311772 36.1768 0.597334 36.1197C2.90087 35.6556 3.75518 34.5229 4.1169 31.4555C4.15497 31.1342 4.40246 30.8987 4.70468 30.8987C5.0069 30.8987 5.25439 31.1319 5.29246 31.4531C5.65655 34.5205 6.51324 35.6533 8.81678 36.1149C9.09996 36.172 9.29986 36.4291 9.29986 36.7408C9.29986 37.0525 9.10234 37.3095 8.81678 37.3666C6.51086 37.8307 5.61372 39.0086 5.25439 42.0356C5.20203 42.4544 4.93551 42.602 4.72371 42.602ZM4.60473 41.3955C4.63566 41.5882 4.66422 41.7905 4.68802 41.9975C4.69754 42.0713 4.71657 42.1022 4.72371 42.1117C4.73323 42.1046 4.75465 42.0689 4.76655 41.9832C4.79035 41.781 4.81653 41.5858 4.84746 41.3955C4.81177 41.4169 4.77131 41.4264 4.72609 41.4264C4.68088 41.4193 4.64042 41.4145 4.60473 41.3955ZM1.70151 36.7455C3.27687 37.281 4.21446 38.309 4.72134 40.0676C5.22345 38.309 6.14677 37.281 7.70547 36.7455C6.0849 36.2006 5.183 35.1535 4.69992 33.2379C4.2216 35.1512 3.32208 36.2006 1.70151 36.7455ZM4.7023 31.3912C4.63804 31.3912 4.60949 31.4579 4.60235 31.515C4.59521 31.5864 4.58569 31.6554 4.57617 31.7268C4.61425 31.7054 4.65708 31.6911 4.7023 31.6911C4.74751 31.6911 4.79272 31.703 4.82842 31.7268C4.8189 31.6578 4.81177 31.5864 4.80225 31.515C4.79511 31.4579 4.76655 31.3912 4.7023 31.3912Z" fill="#001C20"/>
<path d="M4.72363 42.4711C4.66651 42.4711 4.38095 42.4496 4.33098 42.038C3.96689 38.9729 2.99597 37.7164 0.621045 37.2405C0.399734 37.1953 0.242676 36.9906 0.242676 36.7431C0.242676 36.4956 0.397352 36.291 0.618663 36.2458C2.96266 35.7746 3.87646 34.5681 4.24293 31.4697C4.27387 31.2104 4.46187 31.0295 4.69983 31.0295C4.9378 31.0295 5.12579 31.2104 5.15673 31.4697C5.52558 34.5705 6.43938 35.7746 8.78576 36.2434C9.00707 36.2886 9.16412 36.4909 9.16412 36.7408C9.16412 36.9882 9.00945 37.1929 8.78814 37.2381C6.44176 37.7093 5.48275 38.961 5.12342 42.0213C5.07107 42.4496 4.78074 42.4711 4.72363 42.4711ZM4.70221 31.2603C4.58084 31.2603 4.48804 31.3555 4.47138 31.4983C4.09063 34.7204 3.13162 35.9769 0.66626 36.4719C0.552035 36.4957 0.471124 36.6075 0.471124 36.7455C0.471124 36.8835 0.552035 36.9954 0.66626 37.0192C3.16017 37.5189 4.17868 38.8254 4.55705 42.0118C4.58085 42.2212 4.6808 42.2426 4.72125 42.2426C4.76409 42.2426 4.86879 42.2188 4.89496 41.9951C5.27095 38.8135 6.27757 37.5118 8.74292 37.0144C8.85715 36.9906 8.93806 36.8788 8.93806 36.7408C8.93806 36.6027 8.85715 36.4909 8.74292 36.4671C6.27757 35.9721 5.31617 34.718 4.93304 31.4959C4.91638 31.3555 4.82357 31.2603 4.70221 31.2603ZM4.72363 41.2955C4.66889 41.2955 4.62131 41.255 4.61179 41.2003C4.15013 38.5517 3.06261 37.3357 0.732891 36.8597C0.680538 36.8478 0.642462 36.8026 0.642462 36.7479V36.7455C0.642462 36.6908 0.680538 36.6456 0.732891 36.6337C3.15779 36.1363 4.16678 34.9036 4.58799 31.9195C4.59513 31.8624 4.6451 31.8219 4.69983 31.8219C4.75695 31.8219 4.80454 31.8648 4.81168 31.9195C5.23526 34.9036 6.24663 36.1363 8.67153 36.6313C8.72389 36.6432 8.76196 36.6884 8.76196 36.7431C8.76196 36.7979 8.72389 36.8455 8.67153 36.8574C6.36562 37.3309 5.29 38.5493 4.8331 41.2003C4.82834 41.255 4.78074 41.2955 4.72363 41.2955ZM1.24929 36.7455C3.20539 37.2667 4.22627 38.3946 4.72363 40.5935C5.21622 38.3923 6.22521 37.2619 8.1599 36.7431C6.16096 36.2101 5.16863 35.0298 4.70221 32.6287C4.23817 35.0321 3.24822 36.2101 1.24929 36.7455Z" fill="#001C20"/>
<path d="M4.72368 42.7162C4.51664 42.7162 4.15017 42.5805 4.0883 42.0665C3.73611 39.0943 2.84849 37.9378 0.573506 37.4809C0.23559 37.4142 0 37.1096 0 36.7432C0 36.3767 0.23559 36.0745 0.573506 36.0055C2.81517 35.5557 3.64806 34.4444 4.00263 31.4388C4.04784 31.0581 4.34055 30.782 4.70226 30.782C5.06397 30.782 5.35667 31.0581 5.40189 31.4388C5.75884 34.4444 6.59174 35.5533 8.83578 36.0031C9.1737 36.0697 9.40928 36.3743 9.40928 36.7408C9.40928 37.1073 9.1737 37.4095 8.83578 37.4785C6.59174 37.9306 5.71601 39.0824 5.36381 42.0499C5.3067 42.5425 4.98306 42.7162 4.72368 42.7162ZM2.03463 36.7455C3.37439 37.2762 4.21919 38.1971 4.7213 39.6773C5.21628 38.1971 6.05154 37.2762 7.37465 36.7455C6.01109 36.203 5.18296 35.2511 4.70226 33.6638C4.22156 35.2487 3.39581 36.2006 2.03463 36.7455Z" fill="#001C20"/>
<path d="M33.863 18.138C35.5169 18.4759 36.3046 19.3349 36.6354 21.2339C36.9614 19.3302 37.7419 18.4711 39.3792 18.1356C39.3792 18.1356 39.3792 18.1356 39.3792 18.1332C37.6658 17.7834 36.9209 16.891 36.6211 14.7755C36.3213 16.8934 35.5764 17.7858 33.863 18.138Z" fill="#001C20"/>
<path d="M82.8228 18.138C84.4766 18.4759 85.2643 19.3349 85.5951 21.2339C85.9211 19.3302 86.7016 18.4711 88.3389 18.1356C88.3389 18.1356 88.3389 18.1356 88.3389 18.1332C86.6255 17.7834 85.8807 16.891 85.5808 14.7755C85.281 16.8934 84.5361 17.7858 82.8228 18.138Z" fill="#001C20"/>
<path d="M58.2762 3.3625C59.9301 3.70042 60.7178 4.55948 61.0486 6.45847C61.3746 4.55472 62.1551 3.69565 63.7924 3.36012C63.7924 3.36012 63.7924 3.36012 63.7924 3.35774C62.079 3.00792 61.3342 2.11554 61.0343 0C60.7345 2.11554 59.9896 3.00793 58.2762 3.3625C58.2762 3.36012 58.2762 3.36012 58.2762 3.3625Z" fill="#001C20"/>
<path d="M75.9883 54.0808C75.8336 54.0808 75.6789 54.0784 75.5219 54.076C70.239 53.9784 65.2393 52.277 61.0367 49.1453C56.8247 52.277 51.825 53.9808 46.5468 54.076C46.3921 54.0784 46.2351 54.0808 46.0804 54.0808C39.2721 54.0808 32.9207 51.4084 28.1542 46.5229C27.9329 46.2968 27.9257 45.9351 28.1399 45.6995C32.7589 40.6022 39.3578 37.6062 46.2422 37.4777C46.3421 37.4753 46.4373 37.4753 46.5301 37.4753C46.4112 37.2778 46.2898 37.0708 46.1637 36.8542C42.7536 30.8669 41.9635 23.6636 43.991 17.0933C44.0838 16.791 44.3979 16.6126 44.7073 16.6863C51.4918 18.326 57.1317 22.5737 60.587 28.6419C60.744 28.9203 60.8939 29.194 61.0343 29.4629C61.1747 29.1916 61.3247 28.9179 61.4793 28.6443C64.9347 22.5737 70.5745 18.3283 77.359 16.6887C77.6684 16.6126 77.9801 16.7934 78.0753 17.0957C80.1004 23.6731 79.308 30.8764 75.905 36.8542C75.7813 37.0731 75.6599 37.2778 75.5385 37.4777C75.6361 37.4777 75.7289 37.4801 75.817 37.4801C82.8037 37.6109 89.2337 40.5308 93.9288 45.7019C94.143 45.9375 94.1358 46.2968 93.9145 46.5253C89.1456 51.4084 82.7966 54.0808 75.9883 54.0808ZM29.4202 46.0874C34.0154 50.585 40.0693 52.9909 46.5254 52.8743C51.6988 52.7791 56.5891 51.0657 60.6702 47.915C60.8868 47.7484 61.189 47.7484 61.4056 47.915C65.4772 51.0633 70.3675 52.7791 75.5433 52.8743C82.0042 52.9909 88.0533 50.5826 92.6485 46.0874C88.2175 41.4256 82.254 38.7984 75.7979 38.677C75.4315 38.6723 74.946 38.6699 74.4558 38.6889C74.2321 38.6985 74.0156 38.5795 73.9061 38.3796C73.7966 38.1797 73.8061 37.937 73.9346 37.749C74.2345 37.3111 74.5367 36.8209 74.8627 36.2545C78.0087 30.7289 78.8106 24.1038 77.0901 17.9928C70.8791 19.6467 65.7223 23.6208 62.5264 29.2321C62.1742 29.8532 61.8577 30.4719 61.5864 31.0716C61.4889 31.2857 61.2771 31.4238 61.0415 31.4238C61.0415 31.4238 61.0415 31.4238 61.0391 31.4238C60.8035 31.4238 60.5917 31.2881 60.4941 31.0739C60.2181 30.4743 59.9064 29.8722 59.5447 29.2321C56.3511 23.6231 51.1943 19.6491 44.981 17.9928C43.2581 24.0991 44.06 30.7217 47.2107 36.2569C47.5344 36.8233 47.8366 37.3135 48.1388 37.7513C48.2673 37.9393 48.2792 38.1821 48.1674 38.382C48.0579 38.5819 47.8414 38.6985 47.6177 38.6913C47.2322 38.6747 46.8157 38.6723 46.2636 38.6794C39.9003 38.7984 33.794 41.4922 29.4202 46.0874Z" fill="#001C20"/>
<path d="M61.0343 49.0001C60.8868 49.0001 60.7368 48.9454 60.6226 48.8359C60.0467 48.2934 59.5137 47.7436 59.0354 47.1963C55.8466 43.6054 53.7715 39.2053 53.0385 34.4721C52.8387 33.2014 52.7363 31.8902 52.7363 30.5813C52.7363 23.6993 55.611 17.0457 60.625 12.3315C60.8558 12.115 61.2175 12.115 61.4484 12.3315C66.4624 17.0457 69.337 23.6969 69.337 30.5813C69.337 31.8926 69.2347 33.2014 69.0348 34.4745C68.3019 39.2053 66.2268 43.6078 63.0356 47.2011C62.5192 47.7817 61.9862 48.3314 61.4484 48.8383C61.3294 48.9454 61.1818 49.0001 61.0343 49.0001ZM61.0343 13.6023C56.451 18.1142 53.9357 24.1205 53.9357 30.5813C53.9357 31.8283 54.0333 33.0753 54.2236 34.2865C54.9233 38.7913 56.8984 42.9795 59.9349 46.4015C60.2752 46.7894 60.6417 47.1773 61.0343 47.5652C61.4055 47.1963 61.7744 46.8084 62.1337 46.4015C65.1702 42.9819 67.1453 38.7936 67.845 34.2889C68.0353 33.0776 68.1329 31.8307 68.1329 30.5813C68.1329 24.1205 65.6176 18.1142 61.0343 13.6023Z" fill="#001C20"/>
<path d="M55.5254 49.9353C51.3038 49.9353 47.1251 48.8645 43.3699 46.7775C37.3517 43.4317 32.9326 37.6895 31.2478 31.0192C31.1693 30.7122 31.3454 30.3957 31.6476 30.3005C38.2036 28.2064 45.4141 28.9227 51.4323 32.2662C52.3128 32.754 53.1719 33.3013 53.9833 33.8915C54.1118 33.9867 54.1999 34.1271 54.2237 34.2841C54.9233 38.7889 56.8985 42.9771 59.9349 46.3967C60.2752 46.7846 60.6417 47.1725 61.0344 47.5604C61.4056 47.1916 61.7744 46.8037 62.1338 46.3967C65.1702 42.9771 67.1454 38.7889 67.845 34.2841C67.8688 34.1271 67.9569 33.9843 68.0854 33.8915C68.8968 33.3013 69.7559 32.754 70.6364 32.2662C76.6522 28.9227 83.8651 28.2064 90.4211 30.3005C90.7233 30.3981 90.8994 30.7122 90.8209 31.0192C89.1361 37.6895 84.7194 43.4317 78.6988 46.7775C73.3088 49.7735 67.0407 50.6754 61.0344 49.319C59.2115 49.7331 57.3649 49.9353 55.5254 49.9353ZM32.559 31.2786C34.2629 37.392 38.3892 42.6368 43.953 45.728C48.8741 48.4647 54.564 49.3642 60.0658 48.2957C59.6993 47.9293 59.3543 47.5604 59.033 47.1939C55.9014 43.6672 53.8429 39.3576 53.0743 34.7196C52.3628 34.2127 51.6155 33.7416 50.8469 33.318C45.2023 30.1815 38.7295 29.4629 32.559 31.2786ZM62.0005 48.2957C67.5023 49.3642 73.1946 48.4647 78.1158 45.728C83.6795 42.6368 87.8058 37.392 89.5097 31.2786C83.3392 29.4629 76.8664 30.1792 71.2194 33.318C70.4532 33.7439 69.7036 34.2127 68.992 34.7196C68.2234 39.3576 66.1673 43.6672 63.0309 47.1963C62.6954 47.5794 62.3503 47.9459 62.0005 48.2957Z" fill="#001C20"/>
<path d="M61.0343 63.7923C60.8868 63.7923 60.7392 63.7376 60.6226 63.6281C58.8783 61.9885 57.5385 59.9325 56.7461 57.686C56.6628 57.4528 56.7342 57.1911 56.9222 57.0292C58.1311 55.9941 59.1472 54.7638 59.9396 53.3669C60.1467 52.998 60.3299 52.6411 60.4846 52.3032C60.5822 52.089 60.7939 51.951 61.0295 51.951C61.0295 51.951 61.0295 51.951 61.0319 51.951C61.2675 51.951 61.4793 52.0866 61.5769 52.3008C61.7339 52.6435 61.9148 52.9933 62.1266 53.3693C62.919 54.7638 63.9351 55.9941 65.144 57.0292C65.332 57.1911 65.4034 57.4504 65.3201 57.686C64.5277 59.9348 63.1879 61.9885 61.4436 63.6281C61.3294 63.7376 61.1818 63.7923 61.0343 63.7923ZM58.0192 57.667C58.6903 59.4065 59.7231 61.0105 61.0343 62.3502C62.3431 61.0105 63.3759 59.4089 64.0494 57.667C62.8738 56.6009 61.8767 55.3587 61.0819 53.9642C61.0652 53.9356 61.0486 53.9071 61.0343 53.8785C61.02 53.9071 61.0034 53.9333 60.9867 53.9618C60.1943 55.3563 59.1972 56.6009 58.0192 57.667Z" fill="#001C20"/>
<path d="M54.2819 90.6401L53.6727 89.8263C54.8578 88.941 61.3377 86.1973 64.2957 86.0188C65.2832 85.9593 66.8538 85.9331 68.6719 85.9022C72.0392 85.8451 76.2298 85.7761 77.8504 85.4429C78.5571 85.2977 79.3043 85.1764 80.0301 85.0598C81.1938 84.8718 82.9334 84.5886 83.2689 84.2983C83.2784 84.0246 83.138 83.344 82.6097 82.6872C82.1719 82.1423 81.3342 81.4712 79.8303 81.3665C78.9641 81.3046 77.591 81.2689 76.0013 81.2261C71.7322 81.1142 65.2832 80.9429 60.2383 80.0719C56.6378 79.4508 53.2658 77.5138 50.2888 75.8052C47.4689 74.1846 44.8227 73.1137 42.4596 72.9543C40.3798 72.8163 36.4176 74.5558 33.65 75.6029C29.8806 77.0307 26.6942 77.3995 22.387 76.7761L22.5321 75.7695C26.5776 76.3525 29.6355 76.0336 33.2883 74.651C36.163 73.5635 40.2251 71.7859 42.5263 71.9382C45.1249 72.1119 47.8687 73.2422 50.7933 74.9223C53.8369 76.6714 56.9853 78.4775 60.4096 79.0701C65.3808 79.9292 71.7869 80.0981 76.0251 80.21C77.6933 80.2552 79.0116 80.2885 79.8993 80.3527C81.7673 80.486 82.8334 81.3498 83.3974 82.0495C84.1113 82.9347 84.3493 83.9389 84.2684 84.4982C84.1399 85.3858 82.8548 85.6333 80.192 86.064C79.4781 86.1806 78.7404 86.2996 78.055 86.44C76.3393 86.7922 72.2747 86.8588 68.6886 86.9183C66.8824 86.9492 65.3213 86.9754 64.3551 87.0325C61.6137 87.1991 55.3718 89.8239 54.2819 90.6401Z" fill="#001C20"/>
<path d="M58.9413 99.6734C55.981 99.2451 53.1967 98.4145 51.0669 97.2628C36.9649 89.6359 29.4141 89.3027 25.2497 90.4545L24.9784 89.474C28.9905 88.3651 33.8451 89.0172 40.1489 91.2065C45.3414 93.0103 49.8533 95.4495 51.55 96.368C55.1481 98.3146 60.7285 99.3045 65.7615 98.8905C67.4011 98.7548 69.2882 98.5502 71.1158 98.3527C74.6829 97.9672 78.0502 97.6007 79.5613 97.7435C79.7374 97.7577 80.5989 97.5674 84.3088 94.5618C86.717 92.6129 89.5608 90.1071 92.0713 87.8963C95.3363 85.0217 97.3733 83.2393 98.1181 82.8395C98.9986 82.3683 99.2604 81.9185 99.2175 81.6734C99.1842 81.4878 98.9558 81.3355 98.6464 81.2903C98.525 81.2737 98.3751 81.2451 98.199 81.2142C96.7855 80.9595 93.4753 80.367 90.5864 82.5278C89.0967 83.6414 87.2525 85.1525 85.4677 86.6137C83.188 88.4817 81.0343 90.2451 79.9183 90.9304C77.7884 92.2416 66.0637 92.1155 63.9077 91.0708C61.7803 90.038 60.3429 87.7083 60.2811 87.6084L61.1497 87.0801C61.1616 87.1015 62.4966 89.2575 64.3503 90.157C66.1565 91.0328 77.5885 91.1708 79.3852 90.0666C80.4442 89.4169 82.5716 87.6726 84.8228 85.8284C86.6171 84.3601 88.4709 82.8419 89.9772 81.7139C93.2183 79.289 96.8355 79.9363 98.3775 80.2123C98.5393 80.2409 98.6797 80.267 98.7916 80.2837C99.5483 80.3932 100.108 80.8691 100.219 81.4973C100.286 81.8733 100.26 82.8466 98.5988 83.7342C97.9206 84.0983 95.4053 86.3138 92.7424 88.6578C90.2199 90.8804 87.3595 93.3982 84.9323 95.3638C81.1343 98.4383 80.0587 98.8096 79.4661 98.7548C78.0597 98.624 74.5854 99 71.2253 99.364C69.3929 99.5616 67.4963 99.7686 65.8448 99.9042C63.5841 100.09 61.2091 100.002 58.9413 99.6734Z" fill="#001C20"/>
<path d="M66.1185 80.3884C65.7924 78.5013 65.4355 72.326 67.2298 70.1867C68.2102 69.0183 69.4572 68.3377 70.5661 68.3686C71.0944 68.3829 71.5132 68.5661 71.7512 68.8803C71.9773 69.1825 72.0415 69.8916 72.2128 72.7948C72.3628 75.334 72.615 79.5865 73.1671 80.3146L72.3556 80.9286C71.6703 80.0267 71.4347 76.876 71.1967 72.8543C71.1134 71.4432 71.0182 69.8535 70.9135 69.4728C70.8636 69.4419 70.7398 69.3871 70.5066 69.3847C69.8903 69.38 68.9122 69.7607 68.0079 70.8387C66.6634 72.4426 66.7158 77.8731 67.1203 80.2147L66.1185 80.3884Z" fill="#001C20"/>
<path d="M84.7253 87.1729L83.8234 86.7041C85.2655 83.9294 86.6957 78.944 87.1502 75.1103C87.4049 72.9567 87.3668 70.7697 87.3358 69.0135C87.312 67.6833 87.293 66.6314 87.3977 65.908C87.4477 65.5701 87.3049 65.4725 87.1597 65.4226C86.5934 65.2274 85.3607 65.6653 84.604 66.9717C83.5997 68.7113 83.0976 73.3636 82.8263 75.8623C82.7597 76.4834 82.705 76.9759 82.6598 77.2972C82.4147 78.9892 81.3914 81.1547 81.3462 81.2475L80.4276 80.8096C80.4371 80.7882 81.4295 78.6893 81.6508 77.1521C81.6936 76.8498 81.746 76.3668 81.8126 75.7552C82.1101 72.9995 82.6074 68.39 83.7211 66.4649C84.7182 64.7396 86.4197 64.0923 87.4905 64.4636C88.1616 64.6968 88.5114 65.306 88.4043 66.0556C88.3115 66.6981 88.3306 67.7642 88.352 68.9992C88.3829 70.7864 88.421 73.009 88.1592 75.2316C87.6952 79.1676 86.2174 84.303 84.7253 87.1729Z" fill="#001C20"/>
<path d="M72.7744 91.8752L72.7649 90.859C72.7054 90.859 72.6697 90.8733 72.6674 90.8733C73.2147 90.6496 76.1726 87.537 77.541 85.6404L78.3643 86.2353C77.7075 87.1443 76.5534 88.5031 75.4254 89.6977C73.3789 91.868 73.0005 91.8728 72.7744 91.8752Z" fill="#001C20"/>
<path d="M74.4736 80.674C74.4736 80.6335 74.5688 76.5642 74.1024 72.4664C73.6098 68.1235 76.0109 65.7414 77.2531 65.2702C77.6196 65.1322 77.8885 65.2203 78.0503 65.3202C78.5595 65.6367 78.6357 66.4054 78.7499 67.5714C78.8189 68.2782 78.8975 69.0801 79.0807 69.913C79.2473 70.6698 79.5519 71.6264 79.9065 72.7353C80.6465 75.0555 81.5698 77.9445 81.6365 80.4764L80.6204 80.5026C80.5561 78.1158 79.659 75.303 78.9379 73.0447C78.5762 71.912 78.2645 70.9339 78.0884 70.1319C77.8909 69.2396 77.8076 68.371 77.7385 67.6713C77.6886 67.1526 77.6267 66.522 77.5315 66.2578C76.8152 66.6076 74.6688 68.4424 75.1138 72.3522C75.5873 76.5238 75.4921 80.6597 75.4898 80.7001L74.4736 80.674Z" fill="#001C20"/>
<path d="M67.3202 91.5587L66.6705 90.7757C68.4577 89.2956 71.4466 86.7089 71.8654 86.0616L72.7197 86.6137C72.0772 87.6036 67.8033 91.1565 67.3202 91.5587Z" fill="#001C20"/>
</svg>
