<svg width="90" height="69" viewBox="0 0 90 69" fill="none" xmlns="http://www.w3.org/2000/svg">
<path d="M44.076 68.5026C43.8743 68.2282 43.6503 67.9135 43.5782 67.8033C43.5062 67.693 43.3013 67.4045 43.1229 67.162C42.9445 66.9195 42.7742 66.667 42.7444 66.6009C42.0317 65.6142 41.409 64.4945 40.7947 63.4347C39.3492 60.9686 38.4082 58.2558 37.9751 55.6194C37.8652 54.9422 37.863 52.386 37.9721 51.9723C38.3105 50.6886 38.4993 50.2166 38.9661 49.4875C40.1403 47.8889 41.6035 47.2862 43.4808 46.9615C45.6916 46.851 48.5875 47.1915 49.9402 49.2631C50.5002 50.0623 50.8652 51.0157 51.058 51.8922C51.3339 57.2965 49.7489 61.4664 46.8213 65.8125C46.6814 66.0181 46.5668 66.2255 46.5668 66.2734C46.5668 66.3213 46.5299 66.3605 46.4847 66.3605C46.4395 66.3605 46.3711 66.4416 46.3326 66.5408C46.2942 66.64 46.0786 66.9663 45.8537 67.2659C45.6287 67.5655 45.4443 67.836 45.4439 67.8671C45.4431 67.9165 45.2774 68.142 44.7421 68.8216C44.6656 68.9187 44.5669 68.999 44.5228 68.9999C44.4788 69.0009 44.2776 68.7771 44.076 68.5026Z" fill="#001C20"/>
<path d="M41.6773 58.9862C41.6773 58.9421 41.6391 58.906 41.5924 58.906C41.5457 58.906 41.5298 58.9421 41.557 58.9862C41.5843 59.0303 41.6225 59.0664 41.6419 59.0664C41.6614 59.0664 41.6773 59.0303 41.6773 58.9862Z" fill="#001C20"/>
<path d="M41.6773 48.0045C41.6773 47.9604 41.6614 47.9243 41.6419 47.9243C41.6225 47.9243 41.5843 47.9604 41.557 48.0045C41.5298 48.0486 41.5457 48.0847 41.5924 48.0847C41.6391 48.0847 41.6773 48.0486 41.6773 48.0045Z" fill="#001C20"/>
<path d="M19.3579 62.6006C19.3305 62.5563 19.3438 62.4554 19.3874 62.3765C19.4311 62.2975 19.5259 62.0165 19.5981 61.752C19.6703 61.4875 19.7586 61.235 19.7942 61.1909C19.8298 61.1468 19.9021 60.9485 19.9548 60.7501C20.7674 58.4 23.632 53.0241 26.3673 52.1727C26.5657 52.1203 26.7644 52.0477 26.809 52.0113C26.9084 51.93 28.1638 51.798 29.4533 51.7334C29.9823 51.7069 30.5775 51.6514 30.7759 51.6101C30.9743 51.5688 31.4944 51.4797 31.9316 51.4119C32.3689 51.3442 32.7657 51.2581 32.8134 51.2206C32.861 51.1831 33.0984 51.0892 33.3409 51.0118C34.0307 50.7916 34.7191 50.3672 35.528 49.6635C36.0417 49.2166 36.0844 49.1956 36.2981 49.2841C36.5897 49.4049 37.0463 49.8813 37.2607 50.2884C37.5241 50.7886 37.4941 51.5535 37.1826 52.2801C34.1483 59.1387 29.7074 61.7741 22.4797 62.5124C21.2571 62.6325 19.4098 62.6847 19.3579 62.6006Z" fill="#001C20"/>
<path d="M30.7759 58.9865C30.7759 58.9423 30.7399 58.9062 30.6958 58.9062C30.6517 58.9062 30.6156 58.9423 30.6156 58.9865C30.6156 59.0306 30.6517 59.0666 30.6958 59.0666C30.7399 59.0666 30.7759 59.0306 30.7759 58.9865Z" fill="#001C20"/>
<path d="M67.2872 62.582C61.1708 62.3365 55.141 58.799 52.5565 53.7363C51.8807 52.3899 51.251 51.2634 51.9087 50.009C52.0008 49.8179 52.4958 49.3882 52.7406 49.2868C52.9249 49.2105 53.0013 49.2182 53.1723 49.3302C54.1727 50.2767 55.1572 50.8979 56.4661 51.2952C56.9096 51.4271 58.3006 51.6241 59.3116 51.6983C61.1105 51.7496 62.7239 51.9259 64.075 52.9711C64.6182 53.3969 65.8945 54.7682 66.2852 55.3459C66.912 56.2723 67.2096 56.7336 67.4186 57.1028C68.234 58.4266 68.6201 59.6698 69.2075 61.0305C69.2612 61.1186 69.3711 61.4433 69.4517 61.7519C69.5322 62.0605 69.6314 62.3565 69.672 62.4097C69.7126 62.4629 69.7225 62.544 69.6941 62.59C69.6368 62.6827 69.2858 62.682 67.2872 62.582Z" fill="#001C20"/>
<path d="M63.56 58.9865C63.56 58.9423 63.5239 58.9062 63.4798 58.9062C63.4357 58.9062 63.3997 58.9423 63.3997 58.9865C63.3997 59.0306 63.4357 59.0666 63.4798 59.0666C63.5239 59.0666 63.56 59.0306 63.56 58.9865Z" fill="#001C20"/>
<path d="M13.4025 54.3771C12.6047 54.3099 11.7777 54.2188 11.5648 54.1749C11.3518 54.1309 10.7448 54.021 10.2157 53.9307C9.68672 53.8404 9.18173 53.7344 9.09356 53.6952C9.00539 53.656 8.62664 53.5662 8.25191 53.4958C7.87718 53.4254 7.49844 53.3338 7.41027 53.2924C7.3221 53.2509 6.96139 53.1465 6.6087 53.0604C5.76114 52.8535 4.80432 52.5829 4.60479 52.4935C4.51665 52.4541 4.15591 52.3467 3.80322 52.2549C3.45053 52.163 3.10743 52.0581 3.04077 52.0216C2.97412 51.985 2.70358 51.894 2.4396 51.8193C2.17562 51.7445 1.84673 51.6316 1.70875 51.5684C1.57078 51.5052 1.27319 51.4108 1.04746 51.3587C0.821721 51.3066 0.637036 51.2345 0.637036 51.1985C0.637036 51.1625 0.492753 51.11 0.316414 51.0818C0.00697532 51.0323 -0.0667678 50.9428 0.0571309 50.7671C0.111095 50.6906 1.04232 49.8927 1.40967 49.6082C1.99885 49.152 3.42798 48.3156 4.00361 48.0901C4.15792 48.0297 4.39238 47.918 4.52463 47.842C4.65689 47.766 4.90939 47.6588 5.08572 47.6036C5.26207 47.5484 5.44243 47.4753 5.48651 47.4411C5.5306 47.4069 5.78309 47.3171 6.04761 47.2415C6.31213 47.1659 6.56462 47.0755 6.6087 47.0407C6.65279 47.0058 6.92332 46.9188 7.20988 46.8472C7.49644 46.7756 7.80304 46.683 7.89121 46.6414C8.10093 46.5423 9.59244 46.1923 10.6566 45.9923C11.1195 45.9053 11.5524 45.8108 11.6185 45.7822C11.6846 45.7536 12.2617 45.646 12.901 45.543C13.5402 45.44 14.2617 45.3218 14.5041 45.2804C14.8832 45.2156 14.9595 45.2243 15.0483 45.3426C15.1051 45.4182 15.3756 45.7317 15.6495 46.0392C17.4796 48.0942 18.8749 49.1042 20.8971 49.8381C21.7952 50.1641 22.5812 50.2762 23.9826 50.2785C24.6783 50.2794 25.165 50.3118 25.165 50.3569C22.641 54.1001 17.1066 54.6636 13.4025 54.3771Z" fill="#001C20"/>
<path d="M8.89323 48.005C8.89323 47.9609 8.85716 47.9248 8.81307 47.9248C8.76898 47.9248 8.73291 47.9609 8.73291 48.005C8.73291 48.0491 8.76898 48.0852 8.81307 48.0852C8.85716 48.0852 8.89323 48.0491 8.89323 48.005Z" fill="#001C20"/>
<path d="M70.1728 54.2215C68.6865 53.9738 67.2522 53.2428 66.2451 52.6502C66.0688 52.5462 65.9065 52.4394 65.8844 52.4128C65.8624 52.3862 65.7586 52.3059 65.6538 52.2343C65.1658 51.9006 63.8805 50.5405 63.8805 50.3577C63.8805 50.3052 64.321 50.2765 65.1029 50.2782C68.8749 50.2838 71.6019 48.2327 73.8637 45.5019L74.1079 45.2029L74.5851 45.2886C74.8476 45.3359 75.5673 45.46 76.1845 45.5644C80.2017 46.3668 84.3185 47.1145 87.6358 49.6084C88.0031 49.8928 88.9344 50.6908 88.9883 50.7673C89.1122 50.943 89.0385 51.0325 88.729 51.082C88.256 51.2837 87.8363 51.3778 87.336 51.5739C84.5815 52.4466 81.7266 53.4623 78.9499 53.8967C76.096 54.4581 72.8698 54.7823 70.1728 54.2215Z" fill="#001C20"/>
<path d="M74.5414 48.0499C74.5414 48.0305 74.5054 47.9923 74.4613 47.965C74.4172 47.9377 74.3811 47.9536 74.3811 48.0003C74.3811 48.047 74.4172 48.0852 74.4613 48.0852C74.5054 48.0852 74.5414 48.0693 74.5414 48.0499Z" fill="#001C20"/>
<path d="M26.9283 49.6826C26.5536 49.6414 26.1568 49.5735 26.0466 49.5316C24.2109 49.1763 22.3666 48.5583 20.7563 47.7165C18.4473 46.6536 16.0612 44.6389 14.701 43.3519C12.761 41.5157 10.1338 38.1209 8.71097 35.6118C8.58876 35.3963 8.39813 35.0757 8.28736 34.8993C8.06642 34.5476 7.85107 34.1013 7.85107 33.9951C7.85107 33.9057 8.50873 33.6217 9.10121 33.4552C11.4435 32.797 13.7832 32.9139 16.5481 33.8272C17.615 34.1318 18.5197 34.6306 19.4287 35.0997C19.4812 35.0997 19.5838 35.2169 19.6565 35.3602C19.9026 35.8448 20.9735 37.6435 21.0764 37.7449C21.0987 37.7669 21.2613 38.0013 21.4376 38.2657C22.2591 39.4973 23.3008 40.7621 24.4422 41.9135C25.91 43.3943 26.2851 43.7275 27.4093 44.549C27.6518 44.7263 27.8868 44.9 27.9317 44.9351C28.0124 44.9985 28.7124 45.4602 29.2529 45.8067C29.7167 46.104 30.9345 46.7566 31.6175 47.0739C31.9702 47.2377 32.3489 47.4194 32.4591 47.4776C32.5694 47.5358 32.8038 47.6289 32.9802 47.6844C33.1565 47.7399 33.3369 47.8111 33.3809 47.8426C33.4514 47.893 35.1421 48.4727 35.4049 48.5366C35.46 48.5501 35.5051 48.6118 35.5051 48.6738C35.5051 48.8033 34.8277 49 32.9401 49.4187C31.7387 49.6852 31.6301 49.6954 29.6537 49.726C28.5295 49.7434 27.3031 49.7241 26.9283 49.6826Z" fill="#001C20"/>
<path d="M30.7759 48.005C30.7759 47.9609 30.7399 47.9248 30.6958 47.9248C30.6517 47.9248 30.6156 47.9609 30.6156 48.005C30.6156 48.0491 30.6517 48.0852 30.6958 48.0852C30.7399 48.0852 30.7759 48.0491 30.7759 48.005Z" fill="#001C20"/>
<path d="M19.7945 37.1036C19.7945 37.0595 19.7584 37.0234 19.7143 37.0234C19.6702 37.0234 19.6342 37.0595 19.6342 37.1036C19.6342 37.1477 19.6702 37.1838 19.7143 37.1838C19.7584 37.1838 19.7945 37.1477 19.7945 37.1036Z" fill="#001C20"/>
<path d="M54.1215 48.929C53.6725 48.8209 53.5404 48.757 53.5404 48.6477C53.5404 48.5437 53.629 48.4921 53.876 48.4526C55.2062 48.0957 56.6265 47.4551 57.6284 46.9805C58.1742 46.7216 59.4159 46.0481 59.7926 45.8066C60.3377 45.4572 61.0333 44.9982 61.1138 44.9348C61.1587 44.8995 61.3971 44.7192 61.6438 44.5341C62.9242 43.5727 63.0781 43.438 64.3616 42.1539C65.6979 40.817 66.0123 40.4604 66.8705 39.3079C67.6088 38.3165 68.1674 37.4869 68.5709 36.7829C68.6847 36.5845 68.8831 36.2419 69.0118 36.0215C69.1406 35.801 69.3063 35.5068 69.38 35.3676C73.4368 33.3787 77.274 32.1253 80.994 33.8501C81.2597 33.9167 81.2494 34.0999 80.954 34.5657C80.8217 34.7743 80.7135 34.9749 80.7135 35.0117C80.7135 35.0484 80.5512 35.3205 80.3528 35.6163C80.1544 35.9122 79.9921 36.1712 79.9921 36.192C79.9921 36.2612 78.9257 37.853 78.29 38.7327C76.2781 41.5166 74.1317 43.7672 71.8546 45.4802C65.2365 49.7376 60.9096 50.7949 54.1215 48.929Z" fill="#001C20"/>
<path d="M63.56 48.005C63.56 47.9609 63.5239 47.9248 63.4798 47.9248C63.4357 47.9248 63.3997 47.9609 63.3997 48.005C63.3997 48.0491 63.4357 48.0852 63.4798 48.0852C63.5239 48.0852 63.56 48.0491 63.56 48.005Z" fill="#001C20"/>
<path d="M74.5414 37.1036C74.5414 37.0595 74.5054 37.0234 74.4613 37.0234C74.4172 37.0234 74.3811 37.0595 74.3811 37.1036C74.3811 37.1477 74.4172 37.1838 74.4613 37.1838C74.5054 37.1838 74.5414 37.1477 74.5414 37.1036Z" fill="#001C20"/>
<path d="M30.5373 44.9055C30.4701 44.8502 30.2709 44.6933 30.0946 44.5568C26.7917 41.7967 25.3668 38.1998 25.0676 34.3732C24.9653 32.9839 25.061 31.5461 25.2583 31.5085C25.7151 31.8772 26.1471 32.4735 26.5152 32.8441C28.4766 34.6305 30.0487 35.7558 32.5095 36.3467C32.8844 36.4143 33.0203 36.5119 33.0203 36.7133C33.0203 36.7967 33.0539 36.9275 33.095 37.0041C33.5186 38.5299 34.1039 40.0906 34.9903 41.4717C35.5583 42.342 36.612 43.4176 37.4289 43.9612C38.5715 44.6799 39.8698 45.1334 41.0961 45.3222C41.2835 45.3504 41.4367 45.4 41.4367 45.4326C41.4367 45.5304 41.0944 45.8124 40.7955 45.9608C40.6412 46.0374 40.4608 46.1449 40.3947 46.1997C40.3286 46.2545 40.0941 46.3655 39.8737 46.4464C39.6533 46.5273 39.4546 46.6195 39.4322 46.6512C39.4097 46.6829 39.013 46.7898 38.5504 46.8887C35.69 47.4087 32.8284 46.7304 30.5373 44.9055Z" fill="#001C20"/>
<path d="M30.7759 37.1034C30.7759 37.0593 30.7399 37.0232 30.6958 37.0232C30.6517 37.0232 30.6156 37.0593 30.6156 37.1034C30.6156 37.1475 30.6517 37.1836 30.6958 37.1836C30.7399 37.1836 30.7759 37.1475 30.7759 37.1034Z" fill="#001C20"/>
<path d="M48.2099 45.9385C47.9048 45.7851 47.5458 45.4676 47.6159 45.4131C47.6341 45.3991 48.0614 45.308 48.5657 45.2106C49.0699 45.1132 49.5208 45.0031 49.5676 44.9659C49.6145 44.9286 49.7429 44.8721 49.8532 44.8402C50.3766 44.6887 51.7106 43.9653 52.0684 43.639C52.1185 43.5934 52.3561 43.3868 52.5965 43.1799C53.4938 42.4079 54.4487 41.0366 55.0484 39.6589C55.2329 39.2348 55.384 38.8451 55.384 38.7928C55.384 38.7405 55.4522 38.5464 55.5355 38.3614C55.6188 38.1765 55.7327 37.8088 55.7886 37.5442C55.8445 37.2797 55.9206 37.029 55.9577 36.9872C55.9949 36.9453 56.0252 36.8325 56.0252 36.7365C58.4298 35.4066 61.9453 34.7713 63.5804 31.6728C63.6274 31.5736 63.7278 31.4924 63.8036 31.4924C63.925 31.4924 63.9472 31.6275 63.9911 32.6347C63.9468 35.811 63.4111 38.9739 61.5901 41.6859C60.8707 42.7213 59.7569 43.933 58.9509 44.5569C58.7746 44.6935 58.5754 44.8504 58.5082 44.9057C57.9516 45.3639 56.3955 46.2137 55.6936 46.4428C54.8819 46.8014 54.1436 46.8731 53.2737 47.0458C51.4722 47.2706 49.7823 46.7967 48.2099 45.9385Z" fill="#001C20"/>
<path d="M42.9644 43.5968C40.0089 42.9731 37.4228 40.6801 36.5202 38.0065C36.2237 37.085 36.146 36.5441 36.1494 35.4252C36.1527 34.3253 36.2672 33.3552 36.5759 31.8129C36.8494 30.4465 37.4591 28.2093 37.7009 27.6848C37.7619 27.5525 37.8381 27.3541 37.8702 27.2439C37.9024 27.1337 38.0146 26.8531 38.1196 26.6203C38.2247 26.3876 38.3106 26.1779 38.3106 26.1545C38.3106 25.9807 39.6054 23.3872 40.1527 22.4646C40.4977 21.8831 41.2764 20.671 41.3566 20.5909C41.3786 20.5689 41.557 20.3164 41.7531 20.0298C42.2313 19.3308 43.5115 17.7221 44.0027 17.2028C44.2209 16.9722 44.4001 16.7564 44.4009 16.7234C44.4081 16.4466 45.035 17.1017 46.3205 18.7294C47.0482 19.6508 47.9107 20.8914 48.6177 22.0337C49.2256 23.016 49.2587 23.0765 49.8896 24.3583C50.1825 24.9534 50.4925 25.5738 50.5785 25.7368C50.6645 25.8999 50.7349 26.0716 50.7349 26.1184C50.7349 26.1653 50.8063 26.3565 50.8936 26.5434C51.3617 27.5456 52.0681 29.9224 52.4716 31.8529C53.1371 35.0371 53.0123 37.691 52.1208 39.3138C51.6451 40.1796 51.5844 40.2787 51.3437 40.582C49.6247 42.6671 47.2673 43.6738 44.643 43.8154C44.029 43.911 43.4642 43.6993 42.9644 43.5968Z" fill="#001C20"/>
<path d="M41.6773 37.1034C41.6773 37.0593 41.6391 37.0232 41.5924 37.0232C41.5457 37.0232 41.5298 37.0593 41.557 37.1034C41.5843 37.1475 41.6225 37.1836 41.6419 37.1836C41.6614 37.1836 41.6773 37.1475 41.6773 37.1034Z" fill="#001C20"/>
<path d="M52.6185 37.1034C52.6458 37.0593 52.6299 37.0232 52.5832 37.0232C52.5365 37.0232 52.4983 37.0593 52.4983 37.1034C52.4983 37.1475 52.5142 37.1836 52.5336 37.1836C52.5531 37.1836 52.5913 37.1475 52.6185 37.1034Z" fill="#001C20"/>
<path d="M22.208 35.1849C21.3296 34.3018 20.1958 33.0245 19.7144 32.3755C19.6042 32.227 19.3688 31.9223 19.1914 31.6986C18.6589 31.0272 17.515 29.2439 16.9941 28.2733C15.2864 25.0677 14.2273 21.8246 13.7736 18.1862C13.5196 16.2164 13.052 11.0426 13.6668 9.85905C13.7272 9.79855 16.4205 11.221 17.1839 11.7166C20.8499 13.9174 24.1073 16.6101 26.9844 19.4566C28.2091 20.6699 28.2257 20.691 28.1814 20.9796C27.9616 22.4134 27.9024 22.943 27.8528 23.9174C27.7966 25.0216 27.9087 27.4935 28.0501 28.27C28.0878 28.4771 28.1942 29.0921 28.2866 29.6367C28.379 30.1812 28.4915 30.6957 28.5366 30.7801C28.6588 31.0085 28.4093 31.0735 28.1869 30.8713C28.0899 30.7831 27.7809 30.5531 27.5002 30.3602C27.2194 30.1672 26.7276 29.829 26.4071 29.6085C26.0867 29.3881 25.5589 29.0274 25.2343 28.807C24.7315 28.4232 24.2128 28.1124 23.7623 27.7237L23.6704 28.1852C23.6198 28.439 23.5414 28.827 23.4962 29.0474C23.3185 29.9136 23.2181 32.1086 23.2644 34.1173C23.2931 35.3688 23.282 36.1413 23.2351 36.1413C23.1934 36.1413 22.7312 35.7109 22.208 35.1849Z" fill="#001C20"/>
<path d="M19.7944 26.1217C19.7944 26.0776 19.7785 26.0415 19.7591 26.0415C19.7397 26.0415 19.7015 26.0776 19.6742 26.1217C19.647 26.1658 19.6629 26.2019 19.7096 26.2019C19.7562 26.2019 19.7944 26.1658 19.7944 26.1217Z" fill="#001C20"/>
<path d="M65.7643 33.396C65.7942 31.3521 65.5764 29.5168 65.2833 27.7237L65.0504 27.9247C63.9771 28.6558 62.8813 29.5098 61.8165 30.2113C61.5006 30.385 61.0442 30.7014 60.8292 30.896C60.7049 31.0085 60.4338 31.0564 60.4338 30.966C60.4338 30.9411 60.4692 30.8545 60.5125 30.7737C60.6 30.6101 60.8678 29.1151 61.0514 27.765C61.2231 26.5022 61.2168 23.1454 61.0407 22.0739C60.9683 21.633 60.8887 21.1396 60.8639 20.9774C60.8194 20.6859 60.833 20.6685 62.0609 19.4544C62.7441 18.779 63.546 18.01 63.843 17.7454C67.056 14.9594 70.6694 12.1379 74.4612 10.2547C74.7064 10.133 74.9486 9.98767 75.1888 9.89114C75.3853 9.8421 75.4003 9.86208 75.4998 10.3057C76.2471 18.8336 73.1155 27.8161 68.2634 33.6888C67.8126 34.2177 65.8995 36.1414 65.8242 36.1414C65.7912 36.1414 65.7643 34.9059 65.7643 33.396Z" fill="#001C20"/>
<path d="M63.56 26.1217C63.56 26.0776 63.5239 26.0415 63.4798 26.0415C63.4357 26.0415 63.3997 26.0776 63.3997 26.1217C63.3997 26.1658 63.4357 26.2019 63.4798 26.2019C63.5239 26.2019 63.56 26.1658 63.56 26.1217Z" fill="#001C20"/>
<path d="M74.5013 15.2206C74.5286 15.1765 74.5127 15.1404 74.466 15.1404C74.4193 15.1404 74.3811 15.1765 74.3811 15.2206C74.3811 15.2647 74.397 15.3008 74.4165 15.3008C74.4359 15.3008 74.4741 15.2647 74.5013 15.2206Z" fill="#001C20"/>
<path d="M31.7592 33.1316C31.5847 32.8926 30.8567 31.5847 30.7675 31.3502C30.7223 31.2314 30.635 31.0254 30.5733 30.8925C30.1934 30.0727 29.7937 28.6396 29.6005 27.4044C29.4416 26.3881 29.4435 23.269 29.6037 22.1141C29.9822 19.9668 30.499 17.4167 31.3872 15.5413C32.6784 16.073 33.9917 17.1843 34.6808 17.7762C35.3073 18.3144 36.3273 19.3427 36.6383 19.7495C36.7394 19.8817 36.8416 20.008 36.8653 20.03C36.9925 20.1482 37.8172 21.2184 37.8986 21.3711C37.9802 21.5243 37.9541 21.6275 37.7161 22.0925C36.0671 25.5379 34.8009 29.0339 33.7389 32.6146C33.6146 33.0334 33.428 33.6644 33.3241 34.0168C33.1928 34.4619 33.0932 34.6655 32.9975 34.6839C32.5607 34.3001 32.0483 33.5271 31.7592 33.1316Z" fill="#001C20"/>
<path d="M30.7759 26.1666C30.7759 26.1472 30.7399 26.109 30.6958 26.0817C30.6517 26.0544 30.6156 26.0703 30.6156 26.117C30.6156 26.1637 30.6517 26.2019 30.6958 26.2019C30.7399 26.2019 30.7759 26.186 30.7759 26.1666Z" fill="#001C20"/>
<path d="M55.7825 34.2378C55.7309 33.9843 55.64 33.6687 55.5805 33.5364C55.521 33.4042 55.4149 33.0615 55.3446 32.7749C55.2743 32.4884 55.1949 32.1998 55.168 32.1337C55.1412 32.0675 55.1089 31.9774 55.0962 31.9333C54.8108 30.9411 54.7146 30.6371 54.6651 30.5706C54.6323 30.5265 54.5615 30.3101 54.5078 30.0897C54.4541 29.8693 54.3615 29.5807 54.3021 29.4484C54.2427 29.3162 54.1338 28.9915 54.0601 28.727C53.9863 28.4625 53.897 28.21 53.8616 28.1659C53.8262 28.1218 53.7398 27.8912 53.6697 27.6535C53.5453 27.2317 53.2071 26.3225 53.0553 26.0017C53.0135 25.9135 52.9115 25.643 52.8286 25.4005C52.6536 24.8889 51.5539 22.4693 51.2457 21.9179L51.0359 21.5425L51.301 21.167C52.0769 20.0682 53.7333 18.2799 54.7828 17.408C55.7234 16.6585 56.5861 15.8547 57.6582 15.5413C57.7231 15.5413 57.819 15.671 57.8714 15.8296C58.6594 17.8578 59.1477 20.0677 59.4424 22.1141C59.6044 23.2717 59.605 26.3843 59.4434 27.4044C58.8389 29.7999 58.3509 32.3708 56.406 34.2898C56.2847 34.4021 56.1855 34.54 56.1855 34.5963C56.1855 34.6526 56.1159 34.6987 56.0309 34.6987C55.907 34.6987 55.8576 34.6072 55.7825 34.2378Z" fill="#001C20"/>
<path d="M38.587 18.6072C37.5863 17.4409 35.5155 15.7009 35.3479 15.5412C35.2222 15.4214 35.2044 15.2713 35.3827 14.7628C35.6358 14.0411 35.886 13.3919 36.0249 13.0964C36.087 12.9641 36.2341 12.6395 36.3516 12.375C36.6278 11.7536 37.5394 9.92578 37.8306 9.4092C38.2235 8.71243 38.4641 8.29614 38.6506 7.99057C39.1606 7.15506 39.4922 6.63236 39.8258 6.13788C40.0284 5.83757 40.2676 5.47031 40.3572 5.32171C40.6745 4.79367 41.0758 4.3384 41.3966 3.87945C42.2268 2.68577 44.417 0.00206544 44.5628 1.56475e-06C44.7802 -0.00283863 47.7685 3.86146 49.1113 5.8823C50.6895 8.25744 51.473 9.6327 52.5593 11.9341C52.9661 12.796 53.1939 13.3194 53.3096 13.6575C53.3699 13.8338 53.438 13.9962 53.461 14.0182C53.5 14.0555 53.9411 15.3352 53.9411 15.4109C53.9411 15.4297 53.8207 15.5162 53.6736 15.603C53.006 15.9969 51.3651 17.5643 50.4867 18.6472C50.1591 19.0511 50.0213 19.1329 49.931 18.9679C49.865 18.85 49.7217 18.5426 49.2132 17.7855C47.9198 15.9041 46.6347 13.7465 44.9431 11.9798L44.5601 11.5846L44.2723 11.8596C42.6036 13.6718 41.2343 15.5904 39.9938 17.6484C39.6316 18.2627 39.0873 19.0681 39.0343 19.0681C39.0057 19.0681 38.8044 18.8607 38.587 18.6072Z" fill="#001C20"/>
<path d="M41.7574 4.28388C41.7574 4.19924 41.6036 4.16374 41.5578 4.23778C41.5301 4.28256 41.5637 4.31929 41.6324 4.31929C41.7012 4.31929 41.7574 4.30329 41.7574 4.28388Z" fill="#001C20"/>
</svg>
