<svg width="178" height="178" viewBox="0 0 178 178" fill="none" xmlns="http://www.w3.org/2000/svg">
<circle cx="89" cy="89" r="89" fill="#001C20"/>
<g clip-path="url(#clip0_0_1)">
<path d="M103.886 28.2587L95.9707 26.8159L96.0126 26.5857C96.1897 26.6179 96.898 26.747 97.0949 25.6668L98.9024 15.7502C99.0993 14.67 98.391 14.5409 98.2139 14.5086L98.2559 14.2784L105.994 15.6889L105.985 17.8463L105.755 17.8043C105.752 17.2183 105.727 16.1525 104.611 15.9492L100.255 15.1551L99.5999 18.7499L103.425 19.4471C104.576 19.6569 104.581 19.1272 104.666 18.7586L104.897 18.8005L104.483 21.0672L104.253 21.0252C104.3 20.6678 104.485 20.1527 103.334 19.9429L99.5095 19.2457L98.1506 26.7009L101.976 27.3981C103.693 27.7112 104.461 25.3078 104.832 23.8751L105.062 23.9171L103.886 28.2587Z" fill="#A1E1FA"/>
<path d="M116.353 19.2592L116.43 19.0384L118.673 19.8233L118.596 20.0442C118.426 19.9847 117.746 19.7468 117.384 20.7832L113.614 31.5545L113.41 31.4832L109.833 18.2739L106.544 27.669C106.182 28.7054 106.844 28.9373 107.031 29.0027L106.954 29.2236L104.711 28.4387L104.788 28.2178C104.958 28.2773 105.638 28.5151 106.001 27.4788L109.336 17.9477C109.693 16.9283 109.014 16.6904 108.844 16.631L108.921 16.4101L110.858 17.088L113.968 28.7988L116.84 20.5929C117.203 19.5566 116.523 19.3187 116.353 19.2592Z" fill="#A1E1FA"/>
<path d="M114.321 32.916L114.343 32.6658C115.448 32.7043 116.003 31.6913 116.542 30.5897L120.573 22.3439C121.056 21.3557 120.408 21.0389 120.246 20.9597L120.349 20.7491L123.071 22.0797L122.968 22.2903C122.79 22.2031 122.158 21.8943 121.675 22.8825L117.644 31.1283C116.677 33.1047 116.361 32.9301 114.321 32.916Z" fill="#A1E1FA"/>
<path d="M123.032 37.2471C120.029 35.2572 119.835 31.6241 121.815 28.6361C123.805 25.6332 127.226 24.3959 130.229 26.3858C133.232 28.3757 133.426 32.0088 131.436 35.0117C129.456 37.9997 126.035 39.237 123.032 37.2471ZM123.742 37.1159C126.391 38.57 129.174 36.6733 130.623 33.9999C132.097 31.3215 132.162 27.9462 129.504 26.5071C126.855 25.053 124.072 26.9497 122.623 29.6231C121.149 32.3015 121.084 35.6768 123.742 37.1159Z" fill="#A1E1FA"/>
<path d="M135.162 30.1059L135.307 29.9211L136.9 31.3793L135.344 38.5193L141.119 36.8744C141.874 36.6625 142.042 36.4258 141.617 36.0369L141.787 35.851L143.567 37.4793L143.409 37.6519C143.276 37.5304 142.718 37.02 141.423 37.396L135.181 39.1508L132.131 42.4839C131.39 43.294 131.921 43.78 132.054 43.9016L131.896 44.0742L129.665 42.0328L129.823 41.8601C129.956 41.9816 130.487 42.4677 131.228 41.6576L134.278 38.3245L135.659 31.8293C135.813 30.7013 135.282 30.2153 135.162 30.1059Z" fill="#A1E1FA"/>
<path d="M151.404 47.906L144.043 57.3822C143.397 58.2282 143.739 58.9309 143.839 59.0803L143.645 59.2108L141.658 56.2523L141.852 56.1218C142.294 56.7793 142.773 56.8475 143.236 56.2767L145.895 52.9076L143.536 49.3962L139.341 50.4792C138.628 50.6764 138.51 51.1461 138.951 51.8036L138.757 51.9341L137.232 49.6629L137.426 49.5324C137.526 49.6818 137.928 50.2795 139.075 49.9859L149.4 47.279C150.492 47.0006 149.895 46.0791 149.794 45.9297L149.989 45.7992L151.404 47.906ZM150.005 47.6963L144.06 49.2397L146.238 52.4821L150.005 47.6963Z" fill="#A1E1FA"/>
<path d="M146.356 65.8382L145.273 63.0149L145.491 62.9311C145.556 63.0991 145.814 63.7713 146.839 63.378L156.25 59.7673C157.275 59.374 157.017 58.7018 156.953 58.5337L157.171 58.4499L158.848 62.8194C159.551 64.6512 159.374 66.7045 157.408 67.4589C155.459 68.2068 153.971 66.7918 153.268 64.96L152.353 62.5736L147.277 64.5208C146.252 64.9141 146.51 65.5863 146.575 65.7544L146.356 65.8382ZM157.462 60.6135L152.823 62.3931L153.584 64.3761C154.287 66.2079 155.474 66.89 156.97 66.3161C158.499 65.7294 158.938 64.462 158.222 62.5966L157.462 60.6135Z" fill="#A1E1FA"/>
<path d="M154.044 77.5322C152.159 78.439 150.423 79.7741 150.71 81.0933L150.481 81.143C150.022 79.0323 152.158 77.334 154.128 76.2245C156.59 74.842 157.066 74.1492 156.753 72.7069C156.577 71.8977 156.051 71.5146 155.313 71.6751L150.053 72.818C148.963 73.0549 149.116 73.7585 149.154 73.9344L148.925 73.9841L148.283 71.0291L148.512 70.9794C148.55 71.1553 148.703 71.8589 149.776 71.6257L159.626 69.4852C160.699 69.2521 160.546 68.5485 160.508 68.3726L160.737 68.3229L161.879 73.5822C162.273 75.3939 161.595 76.8491 160.17 77.1587C158.921 77.4301 157.853 76.6676 157.327 75.1793C156.816 76.3035 155.427 76.8632 154.044 77.5322ZM157.314 72.9165C157.857 75.4142 158.644 76.2379 159.91 75.9627C161.124 75.6989 161.536 74.3752 161.31 73.3374L160.695 70.5055L156.368 71.4458C156.812 71.6255 157.146 72.1425 157.314 72.9165Z" fill="#A1E1FA"/>
<path d="M150.794 88.8293L150.295 80.7989L150.528 80.7843C150.539 80.964 150.584 81.6826 151.68 81.6144L161.741 80.9885C162.836 80.9203 162.792 80.2017 162.781 80.0221L163.014 80.0075L163.503 87.8584L161.406 88.3675L161.392 88.134C161.96 87.9904 162.988 87.71 162.918 86.5782L162.643 82.1587L158.996 82.3856L159.237 86.2661C159.31 87.4339 159.825 87.3116 160.204 87.3061L160.218 87.5397L157.919 87.6827L157.904 87.4492C158.262 87.4089 158.807 87.4652 158.734 86.2974L158.493 82.4169L150.93 82.8875L151.171 86.768C151.279 88.5106 153.797 88.6786 155.277 88.6948L155.291 88.9283L150.794 88.8293Z" fill="#A1E1FA"/>
<path d="M162.054 103.752L161.824 103.708C161.844 103.53 161.921 102.835 160.852 102.716L150.855 101.606C149.768 101.485 149.689 102.198 149.669 102.376L149.437 102.35L149.77 99.3562L150.002 99.382C149.982 99.5602 149.903 100.273 150.99 100.394L160.203 101.417L150.15 95.9348L150.209 95.4002L161.22 92.2579L152.007 91.2343C150.92 91.1135 150.841 91.8263 150.821 92.0045L150.59 91.9788L150.851 89.6265L151.083 89.6523C151.063 89.8305 150.984 90.5433 152.071 90.664L162.068 91.7748C163.137 91.8936 163.216 91.1808 163.236 91.0026L163.468 91.0284L163.27 92.8104L151.782 96.1882L162.262 101.881L162.054 103.752Z" fill="#A1E1FA"/>
<path d="M148.352 105.482L149.093 102.55L149.32 102.608C149.276 102.782 149.099 103.48 150.164 103.749L159.937 106.219C161.001 106.487 161.178 105.789 161.222 105.615L161.448 105.672L160.708 108.604L160.481 108.547C160.525 108.372 160.701 107.674 159.637 107.405L149.864 104.936C148.799 104.667 148.623 105.365 148.579 105.54L148.352 105.482Z" fill="#A1E1FA"/>
<path d="M159.919 110.927L160.137 111.012L159.045 113.832L158.827 113.747C158.892 113.579 159.152 112.908 158.128 112.511L151.582 109.976C149.652 109.229 147.546 110.131 146.818 112.011C146.044 114.008 146.922 116.028 148.936 116.808L155.482 119.343C156.506 119.739 156.766 119.068 156.831 118.9L157.05 118.985L156.192 121.2L155.973 121.116C156.038 120.948 156.298 120.277 155.274 119.88L148.728 117.345C146.278 116.396 145.167 113.881 146.116 111.43C147.026 109.08 149.657 107.918 152.024 108.835L158.57 111.37C159.594 111.766 159.854 111.095 159.919 110.927Z" fill="#A1E1FA"/>
<path d="M148.351 134.141L148.162 134.002C148.257 133.849 148.629 133.254 147.712 132.682L139.146 127.335C138.215 126.754 137.833 127.365 137.738 127.517L137.54 127.393L139.141 124.828L139.339 124.952C139.244 125.105 138.863 125.715 139.794 126.297L147.689 131.224L140.971 121.896L141.256 121.438L152.587 123.375L144.693 118.448C143.761 117.867 143.38 118.478 143.285 118.63L143.086 118.506L144.344 116.491L144.543 116.615C144.448 116.767 144.066 117.378 144.998 117.959L153.564 123.306C154.48 123.878 154.862 123.267 154.957 123.114L155.155 123.238L154.202 124.765L142.337 122.834L149.351 132.538L148.351 134.141Z" fill="#A1E1FA"/>
<path d="M135.291 131.614L137.715 133.744L137.547 133.908C135.217 132.342 133.327 132.187 131.979 133.498C131.072 134.38 130.257 135.979 131.479 137.236C132.777 138.596 134.713 138.176 136.625 137.628C138.422 137.116 140.345 136.709 141.404 137.797C142.727 139.158 142.368 141.019 140.787 142.557C139.957 143.363 138.836 144.025 137.608 144.058L135.891 142.577L136.059 142.413C137.452 143.353 139.216 143.378 140.434 142.194C141.341 141.312 141.807 139.976 140.787 138.926C139.804 137.915 138.239 138.328 136.531 138.854C134.631 139.44 132.349 139.945 131.076 138.636C129.325 136.835 130.136 134.584 131.627 133.135C132.599 132.19 133.833 131.67 135.291 131.614Z" fill="#A1E1FA"/>
<path d="M121.937 141.105L128.454 136.357L128.592 136.547C128.446 136.653 127.863 137.078 128.511 137.967L134.458 146.132C135.106 147.021 135.689 146.597 135.835 146.49L135.973 146.68L129.601 151.321L128.042 149.824L128.232 149.685C128.659 150.088 129.45 150.807 130.368 150.137L133.955 147.525L131.799 144.565L128.65 146.859C127.702 147.549 128.083 147.919 128.292 148.236L128.102 148.374L126.743 146.508L126.932 146.37C127.159 146.651 127.405 147.141 128.353 146.451L131.502 144.157L127.031 138.019L123.882 140.313C122.467 141.343 123.681 143.561 124.464 144.82L124.275 144.958L121.937 141.105Z" fill="#A1E1FA"/>
<path d="M116.423 148.857C115.055 147.27 113.311 145.939 112.11 146.56L112.002 146.351C113.925 145.358 116.124 146.982 117.71 148.598C119.689 150.62 120.483 150.9 121.797 150.221C122.534 149.84 122.768 149.232 122.42 148.559L119.944 143.769C119.431 142.776 118.79 143.107 118.63 143.19L118.522 142.981L121.214 141.59L121.321 141.799C121.161 141.881 120.52 142.213 121.025 143.19L125.662 152.161C126.167 153.138 126.808 152.807 126.968 152.724L127.076 152.932L122.286 155.408C120.636 156.261 119.051 155.984 118.381 154.686C117.793 153.549 118.252 152.317 119.555 151.42C118.334 151.219 117.431 150.021 116.423 148.857ZM121.741 150.818C119.466 151.994 118.874 152.97 119.47 154.123C120.041 155.229 121.429 155.283 122.375 154.794L124.954 153.461L122.917 149.52C122.859 149.997 122.445 150.454 121.741 150.818Z" fill="#A1E1FA"/>
<path d="M109.778 160.178L109.861 160.416L107.277 161.316L107.2 161.095C107.37 161.035 108.061 160.776 108.051 159.597L108.067 147.546L109.172 147.161L116.483 156.661C117.126 157.524 117.893 157.371 118.063 157.312L118.14 157.533L116.015 158.273L108.608 148.444L108.613 159.459C108.612 160.222 109.03 160.438 109.778 160.178Z" fill="#A1E1FA"/>
<path d="M100.061 149.618L103.017 148.981L103.067 149.209C102.891 149.247 102.187 149.399 102.418 150.472L104.543 160.326C104.775 161.399 105.479 161.247 105.655 161.209L105.704 161.438L102.748 162.076L102.699 161.847C102.875 161.809 103.578 161.657 103.347 160.584L101.222 150.73C100.991 149.657 100.287 149.809 100.111 149.847L100.061 149.618Z" fill="#A1E1FA"/>
<path d="M99.5162 156.312C99.8431 159.897 97.9601 163.033 94.357 163.361C92.8334 163.5 91.4415 163.103 90.3706 162.261L89.8013 160.18L90.0343 160.159C90.571 162.08 92.5708 163 94.3096 162.842C97.3211 162.567 98.5735 159.452 98.2973 156.423C98.0178 153.358 96.2423 150.537 93.2129 150.814C90.8288 151.031 89.3967 152.571 89.4317 155.334L89.1987 155.355L89.1587 152.141C90.0889 151.044 91.3745 150.475 93.1671 150.312C96.7702 149.983 99.1877 152.709 99.5162 156.312Z" fill="#A1E1FA"/>
<path d="M80.7398 150.31L88.7722 150.777L88.7586 151.011C88.5789 151 87.8601 150.959 87.7964 152.055L87.2108 162.118C87.1471 163.214 87.8658 163.256 88.0455 163.266L88.032 163.5L80.1792 163.043L79.9252 160.9L80.1589 160.914C80.2332 161.495 80.3882 162.55 81.5203 162.616L85.9408 162.873L86.1531 159.225L82.2716 159C81.1036 158.932 81.1631 159.458 81.1232 159.834L80.8896 159.821L81.0234 157.521L81.257 157.534C81.2541 157.895 81.1329 158.428 82.3009 158.496L86.1823 158.722L86.6225 151.157L82.7411 150.931C80.998 150.83 80.5292 153.309 80.3357 154.776L80.1021 154.762L80.7398 150.31Z" fill="#A1E1FA"/>
<path d="M72.5281 148.587L75.4703 149.285L75.4162 149.513C75.2411 149.471 74.5406 149.305 74.2868 150.373L71.9577 160.181C71.704 161.249 72.4045 161.415 72.5796 161.457L72.5255 161.684L69.5834 160.986L69.6374 160.758C69.8126 160.8 70.5131 160.966 70.7668 159.898L73.096 150.091C73.3497 149.022 72.6492 148.856 72.474 148.814L72.5281 148.587Z" fill="#A1E1FA"/>
<path d="M59.4946 157.439L59.4127 157.659L57.1793 156.827L57.2612 156.607C57.4304 156.67 58.1072 156.922 58.4915 155.89L62.4857 145.163L62.6887 145.239L66.0142 158.556L69.4981 149.2C69.8824 148.168 69.2225 147.922 69.0364 147.853L69.1183 147.633L71.3518 148.464L71.2699 148.684C71.1007 148.621 70.4239 148.369 70.0396 149.401L66.5053 158.893C66.1273 159.909 66.8041 160.161 66.9733 160.224L66.8914 160.444L64.9625 159.725L62.0758 147.92L59.0329 156.092C58.6486 157.124 59.3254 157.376 59.4946 157.439Z" fill="#A1E1FA"/>
<path d="M50.9772 138.247L57.5998 142.583L57.4711 142.78C57.3199 142.681 56.7151 142.285 56.1112 143.207L50.5672 151.674C49.9633 152.597 50.5681 152.993 50.7193 153.092L50.5906 153.288L48.0504 151.625L48.1791 151.429C48.3303 151.528 48.92 151.914 49.514 151.006L55.5233 141.829L52.4086 139.789C50.9419 138.829 49.2937 140.752 48.3911 141.933L48.1946 141.804L50.9772 138.247Z" fill="#A1E1FA"/>
<path d="M46.2553 133.85C48.9327 136.31 48.5493 139.962 46.1013 142.626C43.641 145.303 40.0342 145.994 37.3569 143.533C34.6795 141.073 35.0629 137.421 37.5232 134.744C39.9712 132.08 43.578 131.389 46.2553 133.85ZM45.5263 133.868C43.1172 131.998 40.0417 133.446 38.173 135.881C36.2787 138.317 35.6778 141.671 38.0992 143.528C40.5083 145.397 43.5838 143.949 45.4525 141.514C47.3469 139.078 47.9477 135.724 45.5263 133.868Z" fill="#A1E1FA"/>
<path d="M27.1478 130.938L26.9606 131.078L25.535 129.177L25.7222 129.037C25.8302 129.181 26.2622 129.757 27.1406 129.098L36.2702 122.251L36.3998 122.424L32.015 135.387L39.9782 129.415C40.8566 128.756 40.4354 128.195 40.3166 128.036L40.5038 127.896L41.9294 129.797L41.7422 129.937C41.6342 129.793 41.2022 129.217 40.3238 129.876L32.2454 135.935C31.3814 136.583 31.8134 137.159 31.9214 137.303L31.7342 137.443L30.503 135.801L34.4414 124.343L27.4862 129.559C26.6078 130.218 27.0398 130.794 27.1478 130.938Z" fill="#A1E1FA"/>
<path d="M33.6207 117.537L35.5742 121.277L35.366 121.385C35.2832 121.225 34.952 120.584 33.9747 121.089L25.0035 125.726C24.0263 126.231 24.3575 126.872 24.4403 127.032L24.2321 127.139L22.2945 123.391C20.6799 120.267 21.9194 116.46 25.0593 114.837C28.1832 113.222 32.0061 114.413 33.6207 117.537ZM23.7036 125.017L34.1326 119.627L33.1721 117.769C31.8225 115.157 28.2336 114.576 25.6224 115.926C22.9951 117.284 21.3935 120.548 22.7431 123.159L23.7036 125.017Z" fill="#A1E1FA"/>
<path d="M29.1798 106.062C30.2327 109.524 28.0596 112.461 24.6154 113.509C21.1541 114.562 17.7132 113.332 16.6602 109.871C15.6073 106.41 17.7804 103.472 21.2418 102.419C24.6859 101.371 28.1268 102.601 29.1798 106.062ZM28.5457 105.71C27.4245 102.89 24.0561 102.579 21.2244 103.722C18.3702 104.854 16.1612 107.426 17.2996 110.241C18.4208 113.061 21.7891 113.372 24.6209 112.228C27.4751 111.096 29.6841 108.524 28.5457 105.71Z" fill="#A1E1FA"/>
<path d="M14.1042 93.921L13.8717 93.9479L13.599 91.5876L13.8315 91.5607C13.8522 91.7395 13.9348 92.4548 15.0255 92.3288L26.3621 91.0191L26.3869 91.2336L16.0638 100.218L25.952 99.0754C27.0427 98.9494 26.9622 98.252 26.9395 98.0553L27.1719 98.0285L27.4446 100.389L27.2121 100.416C27.1915 100.237 27.1088 99.5216 26.0181 99.6476L15.9868 100.806C14.914 100.93 14.9966 101.646 15.0172 101.824L14.7848 101.851L14.5493 99.8129L23.7282 91.9032L15.0916 92.901C14.0009 93.027 14.0835 93.7422 14.1042 93.921Z" fill="#A1E1FA"/>
<path d="M16.2284 68.9678L15.9946 68.947L16.3808 66.639L16.6116 66.6777C16.579 66.8729 16.4482 67.6541 17.5073 68.1963L28.1123 73.7488L28.0232 74.2814L18.4255 75.9056L26.9982 80.4062L26.9121 80.9211L15.0385 82.9492C13.8547 83.1526 13.724 83.9337 13.6942 84.1113L13.4635 84.0726L13.9952 80.8948L14.2438 80.9364C14.1487 81.5045 14.4445 81.7 15.214 81.5733L25.1075 80.0351L17.5406 76.0678L16.1526 76.2917C14.9687 76.4952 14.8351 77.294 14.8053 77.4716L14.5746 77.433L14.9578 75.1428L26.2216 73.3777L17.211 68.6578C16.3472 68.2577 16.2551 68.808 16.2284 68.9678Z" fill="#A1E1FA"/>
<path d="M30.35 66.7762L29.3823 69.649L29.16 69.5741C29.2176 69.4031 29.448 68.7191 28.4049 68.3677L18.8289 65.1421C17.7858 64.7908 17.5554 65.4748 17.4978 65.6458L17.2755 65.5709L18.2432 62.6981L18.4655 62.773C18.4079 62.944 18.1775 63.628 19.2206 63.9793L28.7966 67.2049C29.8397 67.5563 30.0701 66.8723 30.1277 66.7013L30.35 66.7762Z" fill="#A1E1FA"/>
<path d="M21.0877 61.3775L20.9793 61.6043L19.238 60.3346L23.1622 52.1212L25.2363 52.6943L25.1357 52.9049C24.5554 52.7868 23.5546 52.5077 23.0592 53.5445L22.2852 55.1645C22.0221 55.7153 22.1398 56.0103 22.8202 56.3354L31.7302 60.5924C32.7184 61.0645 33.028 60.4165 33.1054 60.2545L33.316 60.3551L32.0157 63.0767L31.8051 62.9761C31.8825 62.8141 32.1921 62.1661 31.2039 61.694L22.2939 57.437C21.6135 57.1119 21.31 57.2057 21.0468 57.7565L20.2728 59.3765C19.7852 60.3971 20.6312 61.0002 21.0877 61.3775Z" fill="#A1E1FA"/>
<path d="M36.5004 54.7939L34.7767 57.2735L34.5849 57.1402C34.6875 56.9926 35.0979 56.4022 34.1975 55.7763L25.9319 50.0307C25.0315 49.4048 24.6211 49.9952 24.5185 50.1428L24.3267 50.0095L26.0503 47.5298L26.2422 47.6632C26.1396 47.8108 25.7292 48.4012 26.6296 49.027L29.0797 50.7302L32.5887 45.6823L30.1385 43.9791C29.2381 43.3532 28.8277 43.9436 28.7251 44.0912L28.5333 43.9579L30.2569 41.4782L30.4488 41.6116C30.3462 41.7592 29.9358 42.3496 30.8362 42.9754L39.1018 48.721C40.0021 49.3469 40.4125 48.7565 40.5151 48.6089L40.707 48.7423L38.9833 51.2219L38.7915 51.0886C38.8941 50.941 39.3045 50.3506 38.4041 49.7247L33.0019 45.9695L29.493 51.0175L34.8952 54.7726C35.7955 55.3985 36.2059 54.8081 36.3085 54.6605L36.5004 54.7939Z" fill="#A1E1FA"/>
<path d="M48.2296 41.638C45.509 44.0231 41.9372 43.2526 39.564 40.5456C37.1789 37.825 36.8826 34.183 39.6031 31.7979C42.3237 29.4129 45.8956 30.1834 48.2806 32.9039C50.6538 35.611 50.9502 39.253 48.2296 41.638ZM48.2899 40.9149C50.3977 38.732 49.294 35.5344 47.0857 33.4249C44.879 31.2901 41.6252 30.3364 39.5293 32.5329C37.4215 34.7159 38.5252 37.9135 40.7336 40.0229C42.9402 42.1578 46.194 43.1114 48.2899 40.9149Z" fill="#A1E1FA"/>
<path d="M53.8172 37.0724L51.7403 38.3683L51.6179 38.1689C51.756 38.0841 52.3542 37.7169 52.5065 36.5886L52.8818 30.3179L47.4004 27.6842C46.1935 27.0943 45.5032 27.518 45.3498 27.6122L45.2274 27.4127L47.099 26.264L52.9588 29.0669L53.2442 23.9918C53.3177 22.7007 52.8362 23.0173 52.6828 23.1115L52.545 22.9215L54.6467 21.6315L54.7691 21.8309C54.6311 21.9157 53.9313 22.324 53.8579 23.6152L53.508 29.3423L59.5634 32.2574C60.6136 32.6265 61.2119 32.2593 61.35 32.1746L61.4724 32.374L59.5701 33.5415L53.4369 30.5686L53.118 36.002C53.0533 36.9288 53.2534 37.1861 53.6948 36.873L53.8172 37.0724Z" fill="#A1E1FA"/>
<path d="M62.0945 18.536L69.8089 27.7405C70.5 28.5514 71.2597 28.3655 71.4271 28.2989L71.5137 28.5165L68.1992 29.8352L68.1126 29.6175C68.8492 29.3245 69.0173 28.8698 68.5567 28.2969L65.8228 24.9831L61.8889 26.5482L62.0616 30.881C62.1037 31.6204 62.5382 31.8353 63.2748 31.5423L63.3613 31.7599L60.8169 32.7722L60.7303 32.5546C60.8977 32.488 61.5673 32.2216 61.5226 31.0372L61.0573 20.3641C61.0159 19.2366 59.9881 19.6261 59.8207 19.6927L59.7342 19.4751L62.0945 18.536ZM61.5936 19.8599L61.8465 26.0028L65.479 24.5576L61.5936 19.8599Z" fill="#A1E1FA"/>
<path d="M76.5736 14.8773L76.526 14.6482L78.8523 14.1648L78.8999 14.3939C78.7237 14.4305 78.0188 14.577 78.2422 15.652L80.5642 26.8253L80.3527 26.8692L70.4782 17.3942L72.5036 27.14C72.727 28.215 73.4143 28.0722 73.6082 28.0319L73.6558 28.261L71.3295 28.7444L71.2819 28.5153C71.4581 28.4787 72.163 28.3322 71.9396 27.2572L69.885 17.3704C69.6652 16.313 68.9603 16.4595 68.7841 16.4961L68.7365 16.267L70.7455 15.8495L79.4472 24.2814L77.6782 15.7692C77.4548 14.6942 76.7499 14.8407 76.5736 14.8773Z" fill="#A1E1FA"/>
<path d="M86.5266 13.7749L90.7443 25.0184C91.1267 26.0127 91.905 26.0898 92.085 26.0826L92.0943 26.3166L88.5303 26.4591L88.521 26.2251C89.313 26.1934 89.6226 25.8205 89.3785 25.1271L87.9011 21.0937L83.6711 21.2629L82.3945 25.4065C82.1886 26.1178 82.527 26.4649 83.319 26.4332L83.3283 26.6672L80.5923 26.7766L80.583 26.5426C80.763 26.5354 81.483 26.5066 81.8343 25.3748L84.9411 15.1544C85.2767 14.0773 84.1779 14.1032 83.9979 14.1104L83.9886 13.8764L86.5266 13.7749ZM85.6143 14.857L83.8122 20.7344L87.7182 20.5782L85.6143 14.857Z" fill="#A1E1FA"/>
<circle cx="87" cy="87" r="9" fill="#A1E1FA"/>
</g>
<defs>
<clipPath id="clip0_0_1">
<rect width="155.359" height="155.359" fill="white" transform="translate(10.8979 10.898)"/>
</clipPath>
</defs>
</svg>
