<svg width="133" height="133" viewBox="0 0 133 133" fill="none" xmlns="http://www.w3.org/2000/svg">
<g clip-path="url(#clip0_75_1044)">
<path d="M112.373 66.8276C112.363 76.2261 109.462 85.3946 104.062 93.092C98.6625 100.789 91.0253 106.644 82.1843 109.863C73.3434 113.082 63.7256 113.51 54.6328 111.09C45.5401 108.669 37.4116 103.517 31.3475 96.3302C25.2835 89.1433 21.5768 80.2691 20.7292 70.9087C19.8817 61.5483 21.9341 52.1539 26.6088 43.997C31.2834 35.8402 38.3546 29.3148 46.865 25.3043C55.3754 21.2938 64.914 19.9917 74.1898 21.5744C84.8759 23.4078 94.5692 28.9551 101.556 37.2361C108.543 45.517 112.375 55.9983 112.373 66.8276Z" fill="#001C20"/>
<path d="M58.522 23.1427L63.0936 6.96813L65.0664 0L71.0443 22.4479" fill="#001C20"/>
<path d="M71.0443 22.0905L80.8783 8.45206L85.117 2.57581L83.0498 25.7136" fill="#001C20"/>
<path d="M82.9504 26.0015L95.0057 14.2787L100.203 9.22632L94.146 31.6494" fill="#001C20"/>
<path d="M95.1001 32.0217L110.445 25.123L117.059 22.1501L103.682 41.1537" fill="#001C20"/>
<path d="M102.971 41.1438L119.752 39.903L126.982 39.3719L107.911 52.658" fill="#001C20"/>
<path d="M107.786 52.658L124.458 54.9311L131.643 55.9088L110.221 64.9465" fill="#001C20"/>
<path d="M111.136 65.1202L126.416 72.1628L133 75.2002L109.864 77.5874" fill="#001C20"/>
<path d="M109.352 78.183L122.093 89.1613L127.584 93.8911L104.691 89.8165" fill="#001C20"/>
<path d="M104.383 90.2184L112.597 104.884L116.14 111.207L96.0194 99.554" fill="#001C20"/>
<path d="M95.6666 99.4795L100.372 115.614L102.395 122.568L85.4152 106.696" fill="#001C20"/>
<path d="M85.4152 106.785L84.312 123.555L83.835 130.782L73.3102 110.071" fill="#001C20"/>
<path d="M72.9674 110.229L67.551 126.141L65.2155 133L60.4202 110.269" fill="#001C20"/>
<path d="M60.4202 109.733L51.8136 124.176L48.1016 130.399L48.1463 107.172" fill="#001C20"/>
<path d="M48.1016 107.356L35.0675 117.987L29.4523 122.568L37.4427 100.755" fill="#001C20"/>
<path d="M37.6564 99.8468L22.078 106.204L15.3697 108.944L29.3976 90.417" fill="#001C20"/>
<path d="M28.856 90.9083L12.0751 92.1491L4.83997 92.6801L23.9166 79.394" fill="#001C20"/>
<path d="M23.7278 79.1906L7.14568 76.3418L0 75.1109L21.7252 66.8276" fill="#001C20"/>
<path d="M22.2619 66.1426L7.37425 58.3159L0.954071 54.941L24.18 53.7648" fill="#001C20"/>
<path d="M23.7924 53.7648L12.0552 41.7195L6.99661 36.5331L29.4523 42.583" fill="#001C20"/>
<path d="M29.2933 42.1463L20.6469 27.9073L16.92 21.7729L36.4738 33.987" fill="#001C20"/>
<path d="M36.3595 33.456L32.2847 17.1275L30.5306 10.0948L47.0233 26.5027" fill="#001C20"/>
<path d="M46.8196 25.2024L48.3352 8.84912L48.9911 1.80157L58.4027 22.4727" fill="#001C20"/>
</g>
<defs>
<clipPath id="clip0_75_1044">
<rect width="133" height="133" fill="white"/>
</clipPath>
</defs>
</svg>
