<svg width="760" height="589" viewBox="0 0 760 589" fill="none" xmlns="http://www.w3.org/2000/svg">
<path d="M375.945 584.292C374.224 581.952 372.314 579.267 371.699 578.327C371.084 577.387 369.337 574.926 367.815 572.858C366.294 570.789 364.841 568.636 364.587 568.072C358.508 559.655 353.197 550.105 347.957 541.066C335.628 520.031 327.601 496.893 323.908 474.406C322.97 468.629 322.952 446.826 323.882 443.298C326.768 432.348 328.378 428.322 332.36 422.103C342.375 408.468 354.856 403.328 370.868 400.558C389.725 399.615 414.426 402.52 425.964 420.189C430.74 427.006 433.853 435.138 435.497 442.614C437.851 488.71 424.332 524.277 399.361 561.347C398.167 563.101 397.19 564.869 397.19 565.278C397.19 565.687 396.875 566.021 396.49 566.021C396.104 566.021 395.521 566.713 395.193 567.559C394.865 568.405 393.026 571.188 391.107 573.744C389.189 576.299 387.616 578.607 387.612 578.872C387.605 579.293 386.192 581.216 381.627 587.013C380.974 587.842 380.132 588.526 379.756 588.534C379.38 588.542 377.665 586.633 375.945 584.292Z" fill="white" fill-opacity="0.21"/>
<path d="M355.485 503.12C355.485 502.744 355.159 502.437 354.761 502.437C354.362 502.437 354.227 502.744 354.459 503.12C354.691 503.497 355.017 503.804 355.183 503.804C355.349 503.804 355.485 503.497 355.485 503.12Z" fill="white" fill-opacity="0.21"/>
<path d="M355.485 409.454C355.485 409.078 355.349 408.77 355.183 408.77C355.017 408.77 354.691 409.078 354.459 409.454C354.227 409.831 354.362 410.138 354.761 410.138C355.159 410.138 355.485 409.831 355.485 409.454Z" fill="white" fill-opacity="0.21"/>
<path d="M165.113 533.95C164.879 533.572 164.993 532.711 165.365 532.038C165.737 531.365 166.546 528.968 167.162 526.712C167.778 524.456 168.53 522.302 168.834 521.926C169.138 521.55 169.754 519.858 170.204 518.166C177.135 498.121 201.568 452.267 224.899 445.005C226.591 444.558 228.287 443.939 228.667 443.628C229.515 442.935 240.223 441.81 251.221 441.258C255.734 441.032 260.81 440.558 262.502 440.207C264.195 439.855 268.631 439.094 272.36 438.516C276.09 437.938 279.474 437.204 279.881 436.885C280.288 436.565 282.312 435.763 284.381 435.103C290.264 433.225 296.136 429.605 303.035 423.603C307.417 419.791 307.781 419.612 309.604 420.367C312.091 421.397 315.986 425.461 317.814 428.933C320.061 433.2 319.805 439.724 317.148 445.921C291.267 504.422 253.389 526.9 191.74 533.197C181.312 534.221 165.556 534.667 165.113 533.95Z" fill="white" fill-opacity="0.21"/>
<path d="M262.502 503.124C262.502 502.747 262.195 502.439 261.819 502.439C261.443 502.439 261.135 502.747 261.135 503.124C261.135 503.5 261.443 503.807 261.819 503.807C262.195 503.807 262.502 503.5 262.502 503.124Z" fill="white" fill-opacity="0.21"/>
<path d="M573.925 533.791C521.755 531.697 470.324 501.525 448.279 458.342C442.515 446.859 437.144 437.25 442.754 426.55C443.54 424.92 447.762 421.256 449.85 420.391C451.422 419.74 452.073 419.805 453.532 420.761C462.065 428.834 470.462 434.132 481.626 437.521C485.409 438.646 497.274 440.327 505.897 440.959C521.24 441.397 535.002 442.901 546.526 451.815C551.159 455.448 562.045 467.144 565.379 472.071C570.724 479.973 573.262 483.908 575.046 487.057C582 498.349 585.294 508.952 590.304 520.558C590.762 521.31 591.699 524.079 592.386 526.711C593.074 529.343 593.919 531.868 594.265 532.322C594.612 532.776 594.697 533.467 594.454 533.86C593.965 534.651 590.972 534.645 573.925 533.791Z" fill="white" fill-opacity="0.21"/>
<path d="M542.133 503.124C542.133 502.747 541.825 502.439 541.449 502.439C541.073 502.439 540.766 502.747 540.766 503.124C540.766 503.5 541.073 503.807 541.449 503.807C541.825 503.807 542.133 503.5 542.133 503.124Z" fill="white" fill-opacity="0.21"/>
<path d="M114.316 463.808C107.511 463.234 100.458 462.458 98.6414 462.083C96.8253 461.707 91.6473 460.771 87.135 460C82.6226 459.23 78.3153 458.326 77.5633 457.991C76.8112 457.657 73.5807 456.891 70.3845 456.291C67.1882 455.69 63.9578 454.909 63.2057 454.555C62.4537 454.202 59.377 453.312 56.3688 452.577C49.1395 450.813 40.9783 448.504 39.2764 447.742C38.5246 447.405 35.4477 446.489 32.4395 445.706C29.4312 444.923 26.5048 444.028 25.9362 443.716C25.3677 443.405 23.0601 442.629 20.8085 441.991C18.5569 441.353 15.7516 440.39 14.5748 439.851C13.3979 439.312 10.8596 438.507 8.93428 438.062C7.00885 437.618 5.43358 437.003 5.43358 436.696C5.43358 436.389 4.20292 435.941 2.69885 435.701C0.0594958 435.278 -0.569495 434.515 0.487296 433.016C0.947578 432.364 8.89045 425.558 12.0238 423.132C17.0491 419.24 29.2389 412.106 34.1487 410.183C35.4649 409.668 37.4647 408.715 38.5928 408.067C39.7208 407.419 41.8745 406.504 43.3785 406.033C44.8827 405.562 46.421 404.939 46.7971 404.647C47.1731 404.356 49.3267 403.59 51.5829 402.945C53.8391 402.3 55.9927 401.529 56.3688 401.232C56.7448 400.935 59.0523 400.192 61.4965 399.582C63.9407 398.971 66.5558 398.181 67.3079 397.826C69.0967 396.981 81.8185 393.996 90.8953 392.29C94.8436 391.548 98.5356 390.741 99.0996 390.498C99.6637 390.254 104.586 389.336 110.039 388.457C115.491 387.579 121.644 386.571 123.713 386.217C126.946 385.665 127.596 385.739 128.354 386.748C128.839 387.393 131.146 390.067 133.482 392.69C149.092 410.218 160.993 418.833 178.242 425.093C185.902 427.873 192.606 428.829 204.559 428.849C210.493 428.857 214.644 429.133 214.644 429.517C193.116 461.445 145.91 466.252 114.316 463.808Z" fill="white" fill-opacity="0.21"/>
<path d="M75.8545 409.457C75.8545 409.081 75.5468 408.773 75.1708 408.773C74.7947 408.773 74.4871 409.081 74.4871 409.457C74.4871 409.834 74.7947 410.141 75.1708 410.141C75.5468 410.141 75.8545 409.834 75.8545 409.457Z" fill="white" fill-opacity="0.21"/>
<path d="M598.537 462.479C585.86 460.366 573.626 454.132 565.036 449.077C563.532 448.19 562.148 447.279 561.96 447.052C561.772 446.825 560.887 446.14 559.993 445.529C555.831 442.683 544.868 431.082 544.868 429.523C544.868 429.076 548.625 428.831 555.294 428.845C587.467 428.893 610.727 411.398 630.019 388.106L632.102 385.555L636.172 386.287C638.411 386.69 644.55 387.748 649.814 388.639C684.079 395.483 719.193 401.861 747.488 423.132C750.621 425.558 758.564 432.364 759.024 433.016C760.081 434.515 759.452 435.279 756.812 435.701C752.778 437.422 749.198 438.224 744.931 439.897C721.436 447.34 697.085 456.003 673.402 459.709C649.06 464.497 621.542 467.263 598.537 462.479Z" fill="white" fill-opacity="0.21"/>
<path d="M635.799 409.84C635.799 409.675 635.491 409.348 635.115 409.116C634.739 408.883 634.432 409.019 634.432 409.417C634.432 409.815 634.739 410.141 635.115 410.141C635.491 410.141 635.799 410.006 635.799 409.84Z" fill="white" fill-opacity="0.21"/>
<path d="M229.685 423.766C226.489 423.414 223.105 422.834 222.165 422.478C206.507 419.447 190.776 414.175 177.041 406.996C157.346 397.929 136.994 380.745 125.392 369.768C108.845 354.106 86.4363 325.15 74.3007 303.749C73.2582 301.911 71.6323 299.176 70.6875 297.672C68.803 294.671 66.9662 290.865 66.9662 289.959C66.9662 289.197 72.5756 286.774 77.6292 285.354C97.608 279.74 117.564 280.737 141.147 288.527C150.248 291.125 157.964 295.38 165.717 299.381C166.165 299.381 167.04 300.381 167.66 301.603C169.759 305.736 178.894 321.078 179.771 321.943C179.962 322.131 181.348 324.13 182.852 326.385C189.859 336.89 198.745 347.678 208.48 357.499C221 370.129 224.199 372.971 233.787 379.979C235.856 381.49 237.861 382.972 238.243 383.272C238.932 383.812 244.902 387.75 249.512 390.706C253.468 393.241 263.856 398.808 269.681 401.514C272.69 402.911 275.92 404.461 276.86 404.958C277.8 405.454 279.8 406.248 281.304 406.722C282.808 407.195 284.346 407.803 284.723 408.071C285.324 408.501 299.745 413.446 301.986 413.991C302.456 414.106 302.84 414.632 302.84 415.161C302.84 416.265 297.063 417.943 280.962 421.515C270.715 423.788 269.788 423.875 252.931 424.135C243.342 424.284 232.881 424.119 229.685 423.766Z" fill="white" fill-opacity="0.21"/>
<path d="M262.502 409.456C262.502 409.08 262.195 408.772 261.819 408.772C261.443 408.772 261.135 409.08 261.135 409.456C261.135 409.833 261.443 410.14 261.819 410.14C262.195 410.14 262.502 409.833 262.502 409.456Z" fill="white" fill-opacity="0.21"/>
<path d="M168.836 316.474C168.836 316.097 168.529 315.79 168.153 315.79C167.777 315.79 167.469 316.097 167.469 316.474C167.469 316.85 167.777 317.157 168.153 317.157C168.529 317.157 168.836 316.85 168.836 316.474Z" fill="white" fill-opacity="0.21"/>
<path d="M461.628 417.338C457.798 416.417 456.672 415.871 456.672 414.939C456.672 414.052 457.428 413.612 459.534 413.275C470.88 410.231 482.994 404.767 491.54 400.719C496.196 398.511 506.787 392.766 510 390.706C514.649 387.726 520.582 383.811 521.269 383.27C521.651 382.969 523.685 381.431 525.789 379.852C536.711 371.652 538.023 370.503 548.971 359.551C560.369 348.148 563.05 345.106 570.37 335.275C576.667 326.819 581.433 319.743 584.874 313.739C585.844 312.047 587.536 309.124 588.635 307.244C589.733 305.364 591.146 302.854 591.775 301.667C626.378 284.703 659.107 274.012 690.836 288.723C693.102 289.292 693.015 290.854 690.495 294.827C689.367 296.606 688.444 298.318 688.444 298.631C688.444 298.944 687.059 301.265 685.367 303.788C683.675 306.312 682.29 308.522 682.29 308.699C682.29 309.289 673.194 322.866 667.772 330.369C650.612 354.115 632.305 373.311 612.882 387.922C556.433 424.235 519.527 433.254 461.628 417.338Z" fill="white" fill-opacity="0.21"/>
<path d="M542.133 409.456C542.133 409.08 541.825 408.772 541.449 408.772C541.073 408.772 540.766 409.08 540.766 409.456C540.766 409.833 541.073 410.14 541.449 410.14C541.825 410.14 542.133 409.833 542.133 409.456Z" fill="white" fill-opacity="0.21"/>
<path d="M635.799 316.474C635.799 316.097 635.491 315.79 635.115 315.79C634.739 315.79 634.432 316.097 634.432 316.474C634.432 316.85 634.739 317.157 635.115 317.157C635.491 317.157 635.799 316.85 635.799 316.474Z" fill="white" fill-opacity="0.21"/>
<path d="M260.467 383.021C259.894 382.549 258.195 381.211 256.691 380.046C228.519 356.505 216.366 325.825 213.814 293.186C212.941 281.336 213.757 269.072 215.44 268.752C219.336 271.896 223.021 276.983 226.16 280.143C242.891 295.381 256.299 304.979 277.289 310.018C280.486 310.595 281.646 311.427 281.646 313.146C281.646 313.857 281.933 314.973 282.283 315.626C285.896 328.64 290.889 341.952 298.449 353.732C303.294 361.155 312.281 370.33 319.249 374.966C328.995 381.097 340.068 384.965 350.528 386.575C352.126 386.816 353.434 387.239 353.434 387.516C353.434 388.351 350.514 390.756 347.964 392.022C346.648 392.675 345.11 393.592 344.546 394.059C343.982 394.527 341.982 395.474 340.102 396.164C338.222 396.854 336.527 397.64 336.336 397.91C336.144 398.181 332.76 399.093 328.815 399.936C304.417 404.371 280.009 398.587 260.467 383.021Z" fill="white" fill-opacity="0.21"/>
<path d="M262.502 316.471C262.502 316.095 262.195 315.787 261.819 315.787C261.443 315.787 261.135 316.095 261.135 316.471C261.135 316.848 261.443 317.155 261.819 317.155C262.195 317.155 262.502 316.848 262.502 316.471Z" fill="white" fill-opacity="0.21"/>
<path d="M411.206 391.83C408.603 390.523 405.541 387.814 406.139 387.35C406.294 387.23 409.939 386.452 414.24 385.622C418.541 384.791 422.387 383.852 422.786 383.535C423.186 383.217 424.281 382.735 425.222 382.463C429.686 381.17 441.065 375.001 444.116 372.217C444.543 371.828 446.57 370.066 448.621 368.302C456.274 361.717 464.419 350.02 469.534 338.269C471.108 334.652 472.396 331.327 472.396 330.881C472.396 330.436 472.978 328.78 473.689 327.202C474.4 325.625 475.371 322.488 475.848 320.232C476.325 317.976 476.974 315.838 477.29 315.48C477.607 315.123 477.866 314.161 477.866 313.342C498.376 301.999 528.361 296.581 542.308 270.152C542.709 269.305 543.565 268.613 544.211 268.613C545.247 268.613 545.436 269.765 545.81 278.356C545.433 305.449 540.864 332.426 525.331 355.558C519.195 364.389 509.695 374.725 502.821 380.047C501.317 381.211 499.617 382.55 499.045 383.021C494.297 386.93 481.024 394.178 475.038 396.132C468.114 399.19 461.816 399.803 454.397 401.275C439.031 403.193 424.617 399.151 411.206 391.83Z" fill="white" fill-opacity="0.21"/>
<path d="M366.464 371.858C341.256 366.538 319.197 346.98 311.498 324.176C308.97 316.316 308.307 311.702 308.336 302.159C308.364 292.777 309.341 284.503 311.973 271.347C314.306 259.693 319.506 240.611 321.57 236.137C322.09 235.009 322.74 233.317 323.013 232.377C323.287 231.437 324.245 229.043 325.141 227.058C326.037 225.072 326.77 223.284 326.77 223.084C326.77 221.602 337.813 199.481 342.482 191.612C345.424 186.651 352.067 176.313 352.75 175.63C352.938 175.442 354.46 173.288 356.132 170.844C360.211 164.882 371.13 151.16 375.32 146.731C377.181 144.764 378.71 142.924 378.717 142.642C378.778 140.281 384.125 145.869 395.09 159.752C401.296 167.611 408.653 178.193 414.683 187.936C419.869 196.315 420.151 196.831 425.532 207.764C428.031 212.84 430.675 218.131 431.409 219.522C432.142 220.912 432.742 222.377 432.742 222.777C432.742 223.177 433.351 224.808 434.096 226.402C438.089 234.95 444.114 255.222 447.556 271.689C453.232 298.848 452.168 321.485 444.563 335.326C440.506 342.711 439.988 343.557 437.935 346.143C423.273 363.928 403.165 372.515 380.781 373.722C375.544 374.538 370.727 372.732 366.464 371.858Z" fill="white" fill-opacity="0.21"/>
<path d="M355.485 316.471C355.485 316.095 355.159 315.787 354.761 315.787C354.362 315.787 354.227 316.095 354.459 316.471C354.691 316.848 355.017 317.155 355.183 317.155C355.349 317.155 355.485 316.848 355.485 316.471Z" fill="white" fill-opacity="0.21"/>
<path d="M448.809 316.471C449.041 316.095 448.905 315.787 448.507 315.787C448.109 315.787 447.783 316.095 447.783 316.471C447.783 316.848 447.919 317.155 448.085 317.155C448.25 317.155 448.576 316.848 448.809 316.471Z" fill="white" fill-opacity="0.21"/>
<path d="M189.422 300.109C181.93 292.577 172.259 281.682 168.153 276.147C167.213 274.88 165.206 272.282 163.692 270.373C159.151 264.646 149.394 249.436 144.951 241.157C130.385 213.815 121.351 186.153 117.481 155.119C115.315 138.318 111.326 94.1879 116.57 84.0932C117.086 83.5772 140.058 95.71 146.57 99.9373C177.838 118.709 205.623 141.676 230.163 165.955C240.608 176.304 240.75 176.484 240.373 178.945C238.498 191.175 237.992 195.692 237.569 204.003C237.09 213.421 238.046 234.506 239.252 241.129C239.574 242.896 240.482 248.141 241.269 252.786C242.057 257.43 243.017 261.819 243.402 262.539C244.445 264.487 242.316 265.041 240.419 263.316C239.592 262.565 236.956 260.603 234.562 258.957C232.167 257.311 227.972 254.426 225.239 252.546C222.506 250.666 218.004 247.589 215.235 245.709C210.947 242.436 206.522 239.785 202.68 236.469L201.896 240.405C201.464 242.57 200.796 245.88 200.41 247.76C198.894 255.148 198.038 273.87 198.432 291.004C198.678 301.678 198.583 308.267 198.183 308.267C197.827 308.267 193.885 304.596 189.422 300.109Z" fill="white" fill-opacity="0.21"/>
<path d="M168.836 222.805C168.836 222.429 168.701 222.121 168.535 222.121C168.369 222.121 168.043 222.429 167.811 222.805C167.578 223.182 167.714 223.489 168.112 223.489C168.511 223.489 168.836 223.182 168.836 222.805Z" fill="white" fill-opacity="0.21"/>
<path d="M560.935 284.851C561.19 267.418 559.332 251.763 556.832 236.469L554.846 238.183C545.691 244.419 536.344 251.704 527.263 257.687C524.567 259.168 520.675 261.867 518.841 263.527C517.781 264.487 515.469 264.896 515.469 264.124C515.469 263.912 515.771 263.173 516.14 262.484C516.886 261.089 519.17 248.337 520.736 236.821C522.201 226.051 522.147 197.419 520.645 188.279C520.028 184.519 519.349 180.31 519.137 178.927C518.757 176.44 518.873 176.292 529.347 165.937C535.174 160.175 542.014 153.616 544.547 151.36C571.953 127.597 602.773 103.53 635.115 87.4677C637.206 86.4293 639.272 85.19 641.321 84.3666C642.997 83.9483 643.125 84.1187 643.973 87.9028C650.347 160.641 623.637 237.257 582.251 287.348C578.406 291.86 562.088 308.267 561.446 308.267C561.165 308.267 560.935 297.73 560.935 284.851Z" fill="white" fill-opacity="0.21"/>
<path d="M542.133 222.805C542.133 222.429 541.825 222.121 541.449 222.121C541.073 222.121 540.766 222.429 540.766 222.805C540.766 223.182 541.073 223.489 541.449 223.489C541.825 223.489 542.133 223.182 542.133 222.805Z" fill="white" fill-opacity="0.21"/>
<path d="M635.457 129.823C635.69 129.447 635.554 129.139 635.156 129.139C634.757 129.139 634.432 129.447 634.432 129.823C634.432 130.2 634.567 130.507 634.733 130.507C634.899 130.507 635.225 130.2 635.457 129.823Z" fill="white" fill-opacity="0.21"/>
<path d="M270.889 282.594C269.402 280.555 263.191 269.4 262.431 267.4C262.046 266.386 261.3 264.629 260.775 263.495C257.534 256.503 254.125 244.28 252.477 233.744C251.122 225.076 251.138 198.471 252.504 188.621C255.732 170.305 260.14 148.554 267.717 132.558C278.729 137.093 289.932 146.572 295.809 151.62C301.153 156.211 309.853 164.982 312.506 168.452C313.368 169.58 314.24 170.656 314.442 170.845C315.527 171.852 322.561 180.981 323.255 182.283C323.952 183.589 323.729 184.47 321.699 188.436C307.634 217.823 296.834 247.643 287.775 278.184C286.716 281.757 285.123 287.139 284.237 290.144C283.118 293.941 282.268 295.678 281.452 295.835C277.726 292.561 273.356 285.967 270.889 282.594Z" fill="white" fill-opacity="0.21"/>
<path d="M262.502 223.188C262.502 223.022 262.195 222.696 261.819 222.463C261.443 222.231 261.135 222.366 261.135 222.765C261.135 223.163 261.443 223.489 261.819 223.489C262.195 223.489 262.502 223.353 262.502 223.188Z" fill="white" fill-opacity="0.21"/>
<path d="M475.795 292.029C475.355 289.867 474.58 287.175 474.073 286.047C473.565 284.919 472.66 281.996 472.061 279.552C471.461 277.107 470.784 274.646 470.555 274.082C470.326 273.518 470.05 272.749 469.942 272.373C467.507 263.911 466.687 261.317 466.265 260.75C465.986 260.374 465.382 258.528 464.923 256.648C464.465 254.768 463.675 252.307 463.169 251.178C462.663 250.05 461.733 247.281 461.104 245.025C460.475 242.769 459.713 240.615 459.411 240.239C459.109 239.863 458.373 237.896 457.774 235.869C456.713 232.271 453.829 224.516 452.534 221.78C452.178 221.028 451.308 218.72 450.601 216.652C449.108 212.288 439.728 191.65 437.1 186.947L435.31 183.745L437.571 180.542C444.189 171.17 458.317 155.917 467.269 148.48C475.291 142.087 482.65 135.231 491.795 132.558C492.348 132.558 493.166 133.664 493.613 135.017C500.334 152.317 504.499 171.166 507.012 188.621C508.394 198.494 508.399 225.043 507.021 233.744C501.865 254.176 497.703 276.105 481.114 292.473C480.08 293.43 479.233 294.607 479.233 295.087C479.233 295.568 478.64 295.96 477.915 295.96C476.857 295.96 476.437 295.18 475.795 292.029Z" fill="white" fill-opacity="0.21"/>
<path d="M329.127 158.709C320.592 148.761 302.929 133.92 301.499 132.558C300.427 131.537 300.275 130.256 301.796 125.919C303.955 119.763 306.089 114.226 307.273 111.705C307.803 110.577 309.058 107.808 310.061 105.552C312.416 100.252 320.191 84.6617 322.676 80.2555C326.027 74.3125 328.079 70.7617 329.67 68.1554C334.02 61.0289 336.848 56.5705 339.694 52.3529C341.422 49.7914 343.461 46.6589 344.226 45.3914C346.932 40.8875 350.355 37.0043 353.091 33.0897C360.172 22.9082 378.854 0.0176171 380.097 1.33465e-05C381.952 -0.024212 407.44 32.9363 418.893 50.1729C432.355 70.4316 439.038 82.1618 448.303 101.792C451.773 109.143 453.716 113.607 454.703 116.491C455.217 117.995 455.799 119.38 455.995 119.568C456.327 119.886 460.089 130.801 460.089 131.447C460.089 131.607 459.063 132.345 457.808 133.085C452.114 136.445 438.118 149.815 430.625 159.051C427.831 162.496 426.656 163.194 425.885 161.786C425.322 160.78 424.101 158.158 419.763 151.701C408.731 135.654 397.77 117.25 383.341 102.181L380.075 98.8108L377.62 101.156C363.386 116.614 351.707 132.978 341.127 150.532C338.037 155.771 333.394 162.641 332.942 162.641C332.699 162.641 330.982 160.872 329.127 158.709Z" fill="white" fill-opacity="0.21"/>
<path d="M356.168 36.5387C356.168 35.8168 354.856 35.5139 354.466 36.1455C354.23 36.5274 354.516 36.8407 355.103 36.8407C355.689 36.8407 356.168 36.7042 356.168 36.5387Z" fill="white" fill-opacity="0.21"/>
</svg>
